<?xml version="1.0" encoding="UTF-8" standalone="no"?><!DOCTYPE svg PUBLIC "-//W3C//DTD SVG 1.1//EN" "http://www.w3.org/Graphics/SVG/1.1/DTD/svg11.dtd"><svg xmlns="http://www.w3.org/2000/svg" version="1.1" viewBox="0 0 205 475" width="205.0pt" height="475.0pt"><path d="M 0.00 0.00 L 2.85 0.00 C 4.69 20.62 13.39 40.82 25.50 57.49 C 35.83 71.51 49.43 83.86 61.78 96.23 C 67.95 102.68 74.53 108.70 80.83 115.02 C 64.49 130.60 48.74 146.81 32.74 162.74 C 17.46 179.06 6.99 200.05 3.52 222.15 C 2.02 230.89 1.42 239.69 2.75 248.49 C 5.46 272.59 16.16 295.59 32.74 313.26 C 48.74 329.18 64.49 345.40 80.83 360.98 C 76.10 365.88 70.96 370.33 66.26 375.26 C 54.91 386.85 42.76 397.85 32.17 410.15 C 16.37 428.43 5.70 450.92 2.79 475.00 L 0.00 475.00 L 0.00 0.00 Z" fill="#ffffff" /><path d="M 2.85 0.00 L 33.17 0.00 C 34.91 8.33 36.98 16.44 40.97 24.02 C 44.92 32.67 50.61 40.04 56.85 47.14 C 65.46 56.22 74.48 64.84 83.30 73.70 C 90.04 80.17 96.42 86.99 103.25 93.38 C 107.00 90.52 110.18 86.86 113.59 83.59 C 124.84 72.50 136.01 61.34 147.18 50.17 C 157.59 39.15 166.53 25.53 170.53 10.80 C 171.55 7.23 172.02 3.56 173.08 0.00 L 203.10 0.00 C 202.14 3.97 202.06 8.05 201.12 12.02 C 197.01 31.15 188.22 49.60 175.33 64.38 C 168.38 72.92 160.45 79.81 152.72 87.72 C 143.43 96.76 134.12 105.78 124.90 114.89 C 140.26 129.97 155.57 144.97 170.77 160.23 C 188.19 177.98 199.79 201.26 202.93 225.97 C 203.28 232.11 204.61 237.85 203.46 244.02 C 202.21 263.63 195.27 282.97 184.23 299.20 C 177.86 309.17 169.56 317.04 161.26 325.27 C 151.15 335.16 141.30 345.29 131.01 355.02 C 128.89 356.97 126.88 359.03 124.90 361.11 C 139.32 375.35 153.97 389.36 168.29 403.71 C 172.72 408.32 176.79 413.28 180.74 418.31 C 192.89 434.89 200.52 454.60 202.91 475.00 L 172.89 475.00 C 171.92 472.05 171.56 469.01 170.76 466.03 C 167.35 452.77 159.81 440.36 150.96 430.02 C 147.21 425.54 142.83 421.58 138.68 417.32 C 129.63 408.36 120.66 399.34 111.59 390.41 C 108.86 387.82 106.31 384.81 103.25 382.67 C 96.55 388.81 90.39 395.51 83.81 401.81 C 75.64 409.98 67.33 417.99 59.30 426.30 C 46.12 439.70 36.65 456.36 33.43 475.00 L 2.79 475.00 C 5.70 450.92 16.37 428.43 32.17 410.15 C 42.76 397.85 54.91 386.85 66.26 375.26 C 70.96 370.33 76.10 365.88 80.83 360.98 C 64.49 345.40 48.74 329.18 32.74 313.26 C 16.16 295.59 5.46 272.59 2.75 248.49 C 1.42 239.69 2.02 230.89 3.52 222.15 C 6.99 200.05 17.46 179.06 32.74 162.74 C 48.74 146.81 64.49 130.60 80.83 115.02 C 74.53 108.70 67.95 102.68 61.78 96.23 C 49.43 83.86 35.83 71.51 25.50 57.49 C 13.39 40.82 4.69 20.62 2.85 0.00 Z" fill="#404d54" /><path d="M 33.17 0.00 L 173.08 0.00 C 172.02 3.56 171.55 7.23 170.53 10.80 C 166.53 25.53 157.59 39.15 147.18 50.17 C 136.01 61.34 124.84 72.50 113.59 83.59 C 110.18 86.86 107.00 90.52 103.25 93.38 C 96.42 86.99 90.04 80.17 83.30 73.70 C 74.48 64.84 65.46 56.22 56.85 47.14 C 50.61 40.04 44.92 32.67 40.97 24.02 C 36.98 16.44 34.91 8.33 33.17 0.00 Z" fill="#ffffff" /><path d="M 203.10 0.00 L 205.00 0.00 L 205.00 475.00 L 202.91 475.00 C 200.52 454.60 192.89 434.89 180.74 418.31 C 176.79 413.28 172.72 408.32 168.29 403.71 C 153.97 389.36 139.32 375.35 124.90 361.11 C 126.88 359.03 128.89 356.97 131.01 355.02 C 141.30 345.29 151.15 335.16 161.26 325.27 C 169.56 317.04 177.86 309.17 184.23 299.20 C 195.27 282.97 202.21 263.63 203.46 244.02 C 204.61 237.85 203.28 232.11 202.93 225.97 C 199.79 201.26 188.19 177.98 170.77 160.23 C 155.57 144.97 140.26 129.97 124.90 114.89 C 134.12 105.78 143.43 96.76 152.72 87.72 C 160.45 79.81 168.38 72.92 175.33 64.38 C 188.22 49.60 197.01 31.15 201.12 12.02 C 202.06 8.05 202.14 3.97 203.10 0.00 Z" fill="#ffffff" /><path d="M 103.26 135.43 C 106.57 139.21 110.10 142.79 113.68 146.32 C 121.12 153.48 128.15 161.17 135.95 167.94 C 114.00 168.02 92.04 167.84 70.10 168.02 C 73.62 164.56 76.90 160.88 80.54 157.55 C 88.27 150.32 95.46 142.58 103.26 135.43 Z" fill="#ffffff" /><path d="M 50.99 194.61 C 86.97 194.52 122.92 194.52 158.90 194.56 C 160.32 194.51 160.98 195.15 161.69 196.31 C 164.97 201.47 167.20 206.96 169.32 212.67 C 170.53 216.43 171.87 219.96 172.09 223.95 C 126.03 223.96 79.95 224.11 33.88 223.88 C 35.86 213.99 39.79 204.59 45.17 196.08 C 46.18 194.14 49.20 194.72 50.99 194.61 Z" fill="#ffffff" /><path d="M 33.88 252.13 C 41.58 251.93 49.29 252.04 57.00 252.01 C 95.36 252.04 133.73 251.97 172.09 252.05 C 171.92 254.08 171.64 256.06 171.01 258.01 C 168.91 265.07 166.18 272.07 162.46 278.45 C 161.47 279.91 160.99 281.55 158.89 281.44 C 122.92 281.48 86.97 281.48 50.99 281.39 C 49.20 281.28 46.18 281.86 45.17 279.92 C 39.79 271.41 35.87 262.01 33.88 252.13 Z" fill="#ffffff" /><path d="M 70.10 307.98 C 92.04 308.16 114.00 307.98 135.95 308.06 C 132.65 310.73 129.75 313.76 126.73 316.73 C 118.91 324.67 110.66 332.24 103.26 340.57 C 95.46 333.42 88.27 325.68 80.54 318.45 C 76.90 315.12 73.62 311.44 70.10 307.98 Z" fill="#ffffff" /><path d="M 103.25 382.67 C 106.31 384.81 108.86 387.82 111.59 390.41 C 120.66 399.34 129.63 408.36 138.68 417.32 C 142.83 421.58 147.21 425.54 150.96 430.02 C 159.81 440.36 167.35 452.77 170.76 466.03 C 171.56 469.01 171.92 472.05 172.89 475.00 L 33.43 475.00 C 36.65 456.36 46.12 439.70 59.30 426.30 C 67.33 417.99 75.64 409.98 83.81 401.81 C 90.39 395.51 96.55 388.81 103.25 382.67 Z" fill="#ffffff" /></svg>