<?xml version="1.0" encoding="UTF-8" standalone="no"?>
<svg
   viewBox="0 0 205 473"
   fill-rule="evenodd"
   shape-rendering="geometricPrecision"
   version="1.1"
   id="svg1"
   sodipodi:docname="loader_helix.optimized.svg"
   inkscape:version="1.4.2 (f4327f4, 2025-05-13)"
   width="205"
   height="473"
   xmlns:inkscape="http://www.inkscape.org/namespaces/inkscape"
   xmlns:sodipodi="http://sodipodi.sourceforge.net/DTD/sodipodi-0.dtd"
   xmlns="http://www.w3.org/2000/svg"
   xmlns:svg="http://www.w3.org/2000/svg">
  <defs
     id="defs1" />
  <sodipodi:namedview
     id="namedview1"
     pagecolor="#ffffff"
     bordercolor="#000000"
     borderopacity="0.25"
     inkscape:showpageshadow="2"
     inkscape:pageopacity="0.0"
     inkscape:pagecheckerboard="0"
     inkscape:deskcolor="#d1d1d1"
     inkscape:zoom="6.2736841"
     inkscape:cx="130.22651"
     inkscape:cy="374.58054"
     inkscape:window-width="3200"
     inkscape:window-height="1712"
     inkscape:window-x="4117"
     inkscape:window-y="-8"
     inkscape:window-maximized="1"
     inkscape:current-layer="svg1" />
  <path
     d="m 2,0 c 0.7721465,5.4277133 2.3335097,10.528522 3,16 2.1261104,4.476359 2.5667204,9.650875 5,14 1.407653,4.92219 4.657747,9.081216 6.72867,13.72867 2.396334,5.132306 5.630148,9.917716 9.45734,14.45734 C 29.154289,62.720939 32.639753,67.041643 37,71 c 4.9245,7.250224 12.898359,13.237363 19,20 4.068434,3.20297 8.350271,8.950696 12.930051,12.93005 C 72.841762,108.05513 77.712425,110.139 80,115 75.682647,119.11926 72.300695,121.60274 67.89931,126.10069 53.929262,140.39896 38.88968,154.25422 26,169 c -2.81132,4.41149 -6.09705,8.62647 -9,13 -2.219243,5.86216 -5.908416,11.11546 -8,17.0305 -1.7488661,4.82788 -3.3044524,9.73582 -4.7286701,14.69817 C 3.7421883,219.2977 1.8278697,224.29297 2,230.15248 c -0.7045664,6.28778 -0.00855,10.506 0,17.09148 0.8872796,5.30887 1.5140103,10.72566 3,15.78654 1.0989184,5.09709 3.0274373,9.85056 4.7286701,14.69817 2.8928779,5.58313 5.1236559,11.44051 8.7286699,16.72867 2.079558,4.71459 6.163344,8.59901 9,13 C 41.397276,323.48558 57.92954,338.44004 73,354 c 2.985178,1.88693 11.111886,7.74862 3,10 -2.831259,4.9099 -8.993347,7.72522 -12.744041,12.74404 -4.406476,4.68141 -7.616843,8.08347 -12.356649,12.35665 C 43.259726,396.12163 37.04766,403.73387 30,411 c -2.300917,4.6229 -6.839043,8.31912 -9,13 -4.16812,5.06507 -5.64012,11.24692 -9.45734,16.45734 -1.9744652,4.66708 -3.5135108,9.51451 -5.2713301,14.27133 C 5.6042245,460.02496 3.2354487,464.6164 3,470.09149 c -3.5120155,7.24423 8.878462,2.5966 13.426931,3.90851 4.86053,-1.33049 15.057383,2.67534 16.573069,-2 2.415122,-4.35665 1.749185,-9.98951 5,-14 1.127929,-5.37139 4.520709,-9.80465 6.72867,-14.72867 4.850532,-6.54056 9.428364,-13.19408 16.015371,-19.01537 C 74.82936,410.17064 88.91468,396.08532 103,382 c 16.66667,16.66667 33.33333,33.33333 50,50 2.77182,4.63328 6.47822,8.87943 8.72867,13.72867 3.49616,4.31292 4.48926,9.66263 7.27133,14.27133 1.60407,4.44233 0.85357,12.60153 5.06099,14 9.313,0 18.62601,0 27.93901,0 -0.34407,-5.60503 -0.92548,-11.11175 -3,-16 -0.61357,-5.3083 -2.55196,-10.06784 -4.72867,-14.72867 -1.47463,-5.35569 -4.64134,-10.01049 -7,-15 C 183.72867,423.56346 181.45135,418.33148 177,414 173.5774,408.91879 168.68652,404.44577 164.62798,399.62798 160.7446,395.18363 155.11366,390.91125 152,387 147.28785,382.77576 143.70964,380.01542 139.17064,375.17064 134.27713,370.0279 130.17462,366.20605 125,361 c 2.63334,-5.33604 9.11358,-8.78233 11.72867,-12.72867 3.34827,-3.74264 9.42656,-6.75802 12,-12 4.72393,-2.73724 7.16623,-8.27247 12.18601,-11.18601 5.28268,-5.07966 10.70805,-10.72773 14.54266,-15.54266 4.76145,-3.9976 6.37067,-9.3009 10.54266,-13.54266 1.92676,-4.83507 5.57126,-8.95864 7,-14 2.85136,-4.18611 3.44298,-9.30824 5.72867,-13.72867 0.97025,-5.16056 2.53311,-10.07565 3.27133,-15.33232 1.81189,-8.36723 0.70238,-17.94455 1,-26.93901 -2.0319,-4.91607 -1.5925,-10.85579 -3.72867,-15.72867 C 199.03363,205.02293 195.39639,201.18267 195,196 c -3.42938,-5.15548 -5.10606,-11.03695 -9,-16 -2.89438,-4.46477 -5.54928,-9.02873 -9.18601,-13.18601 -4.22441,-4.17622 -7.08727,-8.6548 -12.10069,-13.10069 -4.0677,-5.17229 -10.11793,-7.68988 -13.17064,-13.17064 -4.33956,-2.88323 -7.02196,-8.43265 -12,-11 -3.46392,-4.15131 -7.08103,-6.96892 -11.64335,-11.64335 -7.44071,-4.80461 5.19624,-9.77122 6.82936,-13.62798 C 139.16495,99.59316 144.20337,95.18279 148,91 152.57731,87.865359 155.90401,83.581903 160.55803,79.441969 166.79968,73.943191 170.82949,67.528242 177,62 c 2.81132,-4.411487 6.09705,-8.626467 9,-13 2.97138,-4.873783 5.0616,-10.112554 8,-15 1.39441,-4.779438 3.07121,-9.441908 5,-14 0.75973,-5.453188 2.31088,-10.5785578 3,-16.0609902 C 203.19433,-3.7207984 191.45538,1.5526772 186.54257,0 181.44016,1.372206 171.32554,-3.4036624 171.27133,3.7286701 170.45593,8.7377795 169.53552,13.70339 167,18 c -1.05454,5.196362 -4.15878,9.543705 -7,14 -2.55492,4.948876 -6.05242,9.507324 -9.91468,13.91468 C 134.39021,61.609787 118.69511,77.304893 103,93 86,76 69,59 52,42 49.4667,37.473353 45.483481,33.547282 43,29 41.276254,24.218905 38.07351,20.050431 37,15 34.679864,10.408747 33.72657,5.2513296 33,0 22.666667,0 12.333333,0 2,0 Z m 69,308 c 4.309402,-0.49532 11.807176,0.35144 17.457426,0 14.847524,0 29.695054,0 44.542574,0 0.13846,3.41568 -8.34645,7.84807 -11.20138,12.20138 C 115.58054,326.82085 108.11232,332.9225 103,340 98.284351,335.93497 95.82389,333.10363 91.54266,329.54266 87.972698,324.52802 83.049775,321.6217 78.713299,316.7133 76.440441,313.73905 72.064195,311.45029 71,308 Z M 38,252 c 4.101552,-1.0379 10.591635,-1.72289 15.72867,-0.27133 4.423352,-1.69296 10.124199,0.24899 14,-0.45734 3.429337,0.0486 9.750737,1.10672 13,0 C 84.286995,251.8908 89.028623,250.73447 94,252 c 4.807323,-1.10915 8.42539,-0.77078 13.72867,-0.27133 4.79727,-0.84081 8.25817,0.30376 13.33232,-0.72867 5.37418,0.0128 9.19675,1.43651 13.66768,0.27133 4.85872,0.93874 8.07308,-0.64771 13.33232,0.72867 4.71583,-1.1277 10.56743,0.0558 14.96951,0 7.57002,-2.57376 10.15282,3.93966 5.9695,9 -0.49011,5.15401 -4.03432,9.04297 -5,14 -2.37648,6.44708 -7.64197,6.72474 -14.30495,6 C 115.13003,281 80.565016,281 46,281 42.706133,276.72103 40.233862,272.10175 38.27133,267.27133 37.124709,262.39942 33.984674,258.35321 34,253 c 0.806569,-1.63602 2.596629,-0.80236 4,-1 z m 7,-57 c 6.024381,-2.35022 13.862473,-0.32175 20.579406,-1 31.473532,0 62.947064,0 94.420594,0 3.00341,4.05578 4.6888,8.6575 7,13 1.2813,5.02155 4.21602,9.35824 4,15 -5.43009,2.18255 -10.52009,0.95152 -16.15248,1 -4.52851,1.27263 -10.3133,-0.28725 -14.57619,0.72867 -3.84202,0.22067 -8.3287,-1.29444 -12.27133,0.27133 -4.34064,-0.67592 -10.4179,0.23822 -14.72867,-0.72867 C 109.74707,224.01335 103.80648,223.08126 100,224 c -3.759069,-1.46135 -9.744067,0.6104 -14,-1 -4.719982,2.09689 -7.324416,-1.21131 -12.72867,0.72867 C 68.85249,223.28733 65.104755,223.53362 61,224 54.727846,223.46288 50.399537,224.0674 43.725544,224 41.096189,223.33651 30.663477,224.44442 35,218 c 0.742687,-5.05956 3.546424,-9.2654 5,-14.0305 0.628601,-3.34241 4.071664,-5.76366 5,-8.9695 z m 58,-60 c 8.40989,10.52057 19.45489,19.94965 29,30 4.47683,3.5896 -10.03998,1.42407 -13.42693,2 -15.19102,0 -30.382047,0 -45.57307,0 -5.212428,0.13846 5.999818,-8.34645 8.201381,-11.20138 C 86.161403,151.9944 89.088091,147.12153 94,144 c 2.17323,-4.1947 5.52774,-5.04941 9,-9 z"
     fill="#3e4a4f"
     id="path1" />
</svg>
