<?xml version="1.0" encoding="UTF-8" standalone="no"?>
<svg
   viewBox="0 0 598 872"
   fill-rule="evenodd"
   version="1.1"
   id="svg1"
   sodipodi:docname="loader_bulb.optimized.svg"
   inkscape:version="1.4.2 (f4327f4, 2025-05-13)"
   xmlns:inkscape="http://www.inkscape.org/namespaces/inkscape"
   xmlns:sodipodi="http://sodipodi.sourceforge.net/DTD/sodipodi-0.dtd"
   xmlns="http://www.w3.org/2000/svg"
   xmlns:svg="http://www.w3.org/2000/svg">
  <defs
     id="defs1" />
  <sodipodi:namedview
     id="namedview1"
     pagecolor="#ffffff"
     bordercolor="#000000"
     borderopacity="0.25"
     inkscape:showpageshadow="2"
     inkscape:pageopacity="0.0"
     inkscape:pagecheckerboard="0"
     inkscape:deskcolor="#d1d1d1"
     inkscape:zoom="1.7087156"
     inkscape:cx="214.19597"
     inkscape:cy="366.94228"
     inkscape:window-width="3200"
     inkscape:window-height="1712"
     inkscape:window-x="4117"
     inkscape:window-y="-8"
     inkscape:window-maximized="1"
     inkscape:current-layer="svg1" />
  <path
     d="m 285,18 c -12.62447,1.761202 -25.8453,2.082688 -37.99089,5 C 231.0709,25.547033 216.00313,30.195494 201,35 c -14.64798,6.240368 -29.40242,12.223734 -43,21 -19.60222,10.936631 -37.58154,25.791305 -55,42 -13.410879,14.74893 -25.838664,29.90507 -36,46 -8.579117,14.15065 -16.274483,28.66735 -22,44 -4.445708,11.34398 -8.329016,22.92091 -11,35 -3.725434,15.42337 -7.062601,31.00757 -7,48 -2.761491,18.97165 -0.156519,39.26308 1,58 2.211218,12.52199 4.868372,24.85926 8,37 4.822764,15.48763 9.819615,30.90314 18,45 8.805409,20.10126 21.615765,38.54361 33.407774,57.40777 9.008895,14.05351 17.587196,28.28538 24.999996,43 5.64619,14.34486 12.7282,28.09497 15.59223,43.59223 3.5386,12.50076 5.69651,25.57342 7,39 2.89895,13.51326 5.46585,27.16406 10,40 5.76761,13.07748 12.9291,26.90541 26,36 -4.99799,9.87198 -8.61651,20.31535 -7,32.92715 0.12726,9.01895 6.8671,15.29888 10,23.07285 -8.16489,8.13677 -10.60225,18.64597 -11,30 1.45266,13.97958 9.18084,27.56563 22,35 8.75359,5.0091 18.77215,6.9643 30,6 8.64079,19.52804 27.20845,38.12318 47,46 14.72677,5.99845 31.88726,9.91558 48.98179,7 19.27981,-2.84403 36.299,-11.1457 51.01821,-25 8.59878,-6.6827 16.36798,-17.81274 21,-28 21.05284,2.46474 41.00409,-10.08465 48,-29 4.87465,-12.82367 4.36642,-29.87803 -6,-40 -4.65207,-6.69952 8.22683,-12.06775 7,-20 4.29756,-12.00463 1.72271,-26.41949 -6,-36 3.14919,-7.05377 11.96474,-10.0272 15.40777,-17.40777 9.02906,-12.07866 12.4924,-26.46271 16.59223,-40.58312 2.92097,-14.42023 4.46414,-29.41115 7,-43.9909 2.01357,-14.35747 6.66146,-27.62377 11,-41.01821 7.59944,-17.10873 15.39057,-34.13805 26,-50 11.40416,-19.10873 23.91394,-37.7595 35,-57 7.39805,-15.69705 15.53541,-31.08787 20,-48 5.39811,-14.61007 9.08048,-29.93083 11,-45.98179 3.97956,-21.68693 3.49615,-46.31235 2,-69.01821 -1.80111,-12.55075 -4.09989,-24.89536 -7,-36.99089 C 559.26856,208.28535 555.36579,194.63257 549,182 543.53084,166.23087 535.11174,151.68365 525.59223,137.59223 512.89908,117.52927 495.75904,98.691681 477,82 461.51,69.638 445.47243,58.597973 428.59223,49.592226 418.22307,44.671375 407.91403,39.605393 397,36 385.57639,30.949136 373.15957,28.29609 361.00911,25 345.28158,22.334853 329.86423,18.920902 313,19 304.70043,16.667777 294.00601,18.667233 285,18 Z m -36,780 c 31.83802,-2.33386 65.47156,-0.33295 98,-1 -2.01397,6.63859 -12.16245,12.99458 -19,16 -11.92138,6.33512 -26.05408,8.26191 -40,7 -15.00322,-2.7048 -27.93219,-9.77286 -39,-22 z m -47,-59 c 34.67716,-2.3338 71.14978,-0.33298 106.51735,-1 29.02491,0.66159 59.1474,-1.32659 87.48265,1 11.92243,4.91062 10.9853,22.39694 -1,26 -34.67716,2.3338 -71.14978,0.33298 -106.51735,1 -29.02346,-0.6651 -59.14952,1.33171 -87.48265,-1 -10.92171,-4.99276 -11.00897,-22.48714 1,-26 z m 3,-58 c 34.67716,-2.3338 71.14978,-0.33298 106.51735,-1 27.38813,0.58944 55.77329,-1.22816 82.48265,1 11.77405,3.25 14.48114,19.89818 3.59223,25.40777 -14.59227,5.32372 -32.17208,1.2146 -47.53759,2.59223 -31.71292,-0.17362 -59.60229,-0.006 -91.85429,0 -18.61023,-0.63083 -38.27554,1.28556 -56.20035,-1 -13.27609,-4.34203 -11.67092,-25.82304 3,-27 z M 284,49 c 16.01837,-2.841564 33.08256,0.24846 49,1 13.10961,2.735383 26.75225,4.183914 39,9 15.19397,3.588916 28.97916,10.578913 43,17 19.61306,11.672931 38.7813,24.41977 55.66997,42.66997 C 490.56194,137.79923 504.55879,159.37032 516,182 c 6.26268,13.94839 11.96946,28.12703 16,43 4.08225,13.74698 7.43459,27.7963 8,43 2.15958,15.92809 0.96464,33.97024 0,50 -1.8251,13.34859 -4.72696,26.25117 -8,39 -4.73514,14.38585 -9.24666,28.86433 -17,42 -8.33209,18.8259 -21.12471,35.8042 -32.40777,53.40777 C 470.90245,469.18229 462.25273,487.21603 453,505 c -3.47132,12.21899 -10.09541,23.13205 -12,36 -4.48974,13.91152 -7.05245,28.62125 -8,44 -2.87986,13.04976 -4.09722,26.78816 -9,39 -4.55788,9.65319 -11.52538,20.3751 -22,25 -4.21411,9.01836 -22.96953,1.56547 -32.85429,4 C 310.7638,653 252.3819,653 194,653 192.93947,644.18647 180.68226,641.43448 177.59223,632.59223 171.01309,619.85277 167.44646,605.86549 166,591 c -2.93151,-13.41889 -4.29023,-27.48926 -7,-41 -4.16902,-13.53947 -7.26501,-27.52339 -14,-40 -4.80852,-14.29523 -12.63759,-27.33931 -20.40777,-40.40777 C 113.1783,449.73695 98.453907,431.25292 88,411 81.099906,398.0395 73.829929,385.23221 70,371 64.409028,358.80011 62.115087,345.23454 59,332.00911 56.524605,314.81246 54.369181,297.48328 55,279 56.732576,266.697 57.063819,253.81355 60,242.00911 62.399663,229.61933 65.858933,217.66846 70,206 c 5.099742,-12.23483 9.907119,-24.59076 17,-36 10.340119,-19.3779 24.91949,-36.99985 41,-54 12.80942,-11.97487 27.77572,-24.500357 43,-33 13.33653,-9.406505 28.50095,-14.400087 43,-21 14.0586,-3.191872 27.03797,-8.989216 42,-10 8.98017,-1.798744 18.21222,-3.150812 28,-3 z"
     fill="#3e4a4f"
     id="path1" />
</svg>
