<?xml version="1.0" encoding="UTF-8" standalone="no"?>
<svg
   version="1.1"
   viewBox="0 0 598 872"
   width="598.0pt"
   height="872.0pt"
   id="svg12"
   sodipodi:docname="logo_bulb.svg"
   inkscape:version="1.4.2 (f4327f4, 2025-05-13)"
   xmlns:inkscape="http://www.inkscape.org/namespaces/inkscape"
   xmlns:sodipodi="http://sodipodi.sourceforge.net/DTD/sodipodi-0.dtd"
   xmlns="http://www.w3.org/2000/svg"
   xmlns:svg="http://www.w3.org/2000/svg">
  <defs
     id="defs12" />
  <sodipodi:namedview
     id="namedview12"
     pagecolor="#ffffff"
     bordercolor="#000000"
     borderopacity="0.25"
     inkscape:showpageshadow="2"
     inkscape:pageopacity="0.0"
     inkscape:pagecheckerboard="0"
     inkscape:deskcolor="#d1d1d1"
     inkscape:document-units="pt"
     inkscape:zoom="0.89449541"
     inkscape:cx="491.33846"
     inkscape:cy="581.33334"
     inkscape:window-width="2400"
     inkscape:window-height="1262"
     inkscape:window-x="-8"
     inkscape:window-y="474"
     inkscape:window-maximized="1"
     inkscape:current-layer="svg12" />
  <path
     id="path2"
     d="M 287.69238 18.972656 C 269.53238 19.657656 251.44508 22.084609 233.83008 26.349609 C 194.48008 35.079609 157.28969 53.639863 125.92969 78.859863 C 116.72969 86.559863 107.41951 94.470254 99.499512 103.51025 C 78.009512 126.17025 60.600488 152.7702 48.250488 181.4502 C 35.860488 210.8202 28.429434 242.14049 26.919434 274.00049 C 26.349434 289.31049 26.329473 304.78002 27.959473 320.02002 C 29.629473 339.79002 34.299395 358.94938 40.129395 377.85938 C 46.229395 395.72938 54.359512 412.97021 63.499512 429.47021 C 78.959512 456.50021 97.070488 480.78049 111.25049 508.75049 C 117.98049 522.79049 124.03002 536.9 128.02002 552 C 132.56002 568.45 134.45936 586.38988 137.33936 602.87988 C 141.14936 620.26988 144.77018 637.20963 154.68018 652.36963 C 159.18018 659.74963 165.28951 665.87996 172.24951 670.95996 C 160.58951 687.15996 161.1899 710.60025 175.1499 725.26025 C 170.1899 731.02025 166.21963 737.24986 164.86963 744.85986 C 162.70963 754.99986 164.18002 765.6502 169.27002 774.7002 C 174.39002 783.5602 182.21053 790.73998 191.79053 794.47998 C 199.37053 797.73998 207.33947 798.07063 215.45947 797.39063 C 221.52947 810.88063 231.02998 822.29957 242.47998 831.55957 C 255.60998 841.79957 271.46975 848.45031 287.98975 850.57031 C 305.43975 852.84031 323.1607 849.53996 338.9707 841.95996 C 358.1207 832.15996 374.48973 817.30023 383.46973 797.49023 C 390.04973 797.43023 396.15951 797.72008 402.49951 795.58008 C 419.58951 790.44008 432.78936 774.70961 434.33936 756.84961 C 435.01936 748.27961 433.25 738.85021 428.25 731.72021 C 426.72 729.43021 424.98953 727.4307 423.26953 725.2207 C 437.04953 710.8707 438.23951 686.59982 425.74951 671.06982 C 429.83951 668.01982 433.7307 664.96996 437.2207 661.20996 C 447.2907 649.56996 453.00057 635.61938 456.83057 620.85938 C 462.84057 598.76938 463.37975 574.28043 469.48975 552.19043 C 475.02975 531.04043 483.89049 511.52072 494.50049 492.49072 C 508.36049 468.43072 524.57004 445.54979 538.04004 421.02979 C 544.23004 409.42979 549.59955 397.43016 554.28955 385.16016 C 559.49955 370.21016 564.39955 354.62 567.03955 339 C 568.78955 329.4 570.07063 319.73049 570.89063 310.00049 C 571.54063 295.30049 571.84064 280.68977 570.66064 266.00977 C 568.06064 233.47977 558.91975 201.39006 545.23975 171.81006 C 530.63975 140.48006 509.66984 112.11939 484.08984 88.879395 C 444.85984 53.099395 394.50975 29.610293 341.98975 22.050293 C 324.08475 19.345293 305.85238 18.287656 287.69238 18.972656 z M 295.49561 48.808594 C 302.28061 48.799844 309.06549 49.005352 316.00049 49.110352 C 335.02049 50.530352 353.68994 53.469629 371.93994 59.119629 C 392.49994 64.899629 411.71037 73.989902 429.88037 85.149902 C 469.88037 110.8399 501.99055 148.45037 520.81055 192.13037 C 527.94055 209.26037 533.97021 226.58984 537.47021 244.83984 C 540.94021 261.96984 542.42965 279.55051 541.88965 297.02051 C 541.06965 310.57051 540.07973 323.70979 537.21973 337.02979 C 534.54973 350.80979 530.39008 364.32049 525.58008 377.50049 C 516.81008 400.50049 504.5793 421.41932 490.5293 441.54932 C 488.1093 445.14932 485.75041 448.76992 483.42041 452.41992 C 465.34041 479.84992 449.86023 509.33041 441.24023 541.17041 C 436.60023 556.99041 434.56002 572.70023 432.52002 588.99023 C 430.24002 603.58023 427.66936 620.16955 420.08936 633.03955 C 415.65936 640.50955 407.98973 648.35969 399.21973 650.17969 C 398.32973 645.49969 397.98043 640.75986 396.94043 636.10986 C 393.31043 619.97986 386.52998 604.65055 376.72998 591.31055 C 371.48998 584.58055 365.98027 578.0907 359.78027 572.2207 C 346.91027 559.4107 333.77988 546.86057 320.87988 534.08057 C 336.10988 519.24057 351.22953 504.30953 366.26953 489.26953 C 377.16953 478.31953 385.82967 465.11006 391.65967 450.81006 C 403.79967 420.69006 402.39068 385.66006 388.70068 356.31006 C 381.22068 339.73006 369.3507 325.22051 356.2207 312.77051 C 344.5807 301.65051 333.11971 290.34928 321.44971 279.25928 C 334.02971 266.56928 346.93055 254.1998 359.56055 241.5498 C 365.62055 235.1598 371.96006 229.42061 377.31006 222.37061 C 386.92006 210.13061 393.29053 195.98928 397.29053 181.00928 C 400.35053 169.25928 401.00965 157.10049 400.88965 145.00049 C 400.81965 140.67049 401.30025 136.10008 400.51025 131.83008 C 399.80025 127.71008 396.06027 125.13951 392.03027 124.99951 C 386.70027 124.81951 381.29973 124.86996 375.96973 124.95996 C 373.65973 124.90996 371.39037 126.26945 369.88037 127.93945 C 367.78037 130.74945 367.9501 133.66047 367.8501 136.98047 C 321.6301 137.01047 275.40066 137.02047 229.18066 136.98047 C 229.10066 133.28047 229.5498 130.2007 226.5498 127.4707 C 223.0298 123.7907 218.60049 125.14965 214.00049 124.88965 C 209.11049 125.07965 203.59063 124.04037 199.64063 127.63037 C 196.00063 131.04037 197.11971 135.52951 196.94971 139.99951 C 197.18971 148.48951 196.38951 156.77025 197.74951 165.01025 C 200.02951 188.45025 209.70033 211.02021 225.59033 228.47021 C 231.94033 236.17021 239.41984 242.51064 246.33984 249.66064 C 256.55984 259.22064 266.34939 269.24025 276.37939 279.01025 C 264.62939 290.72025 252.55961 302.1001 240.84961 313.8501 C 231.77961 322.6301 222.81939 332.44938 216.37939 343.35938 C 208.16939 356.43937 202.70979 370.86072 199.77979 385.99072 C 196.58979 404.28072 197.46023 423.20051 202.74023 441.02051 C 208.26023 459.35051 218.45072 476.45025 232.24072 489.76025 C 247.07072 504.53025 261.68936 519.55 276.83936 534 C 267.34936 543.12 258.09971 552.4802 248.69971 561.7002 C 239.84971 570.6102 230.87047 579.20047 223.23047 589.23047 C 209.92047 606.63047 200.50949 628.16938 198.72949 650.10938 C 193.20949 649.06938 188.41014 645.37035 184.39014 641.61035 C 178.74014 635.58035 174.94059 627.47947 172.35059 619.70947 C 166.51059 601.73947 165.39936 584.39072 162.08936 565.99072 C 157.37936 535.23072 145.18992 505.04029 129.91992 478.05029 C 121.32992 462.82029 111.49994 448.63053 101.93994 434.04053 C 87.899942 412.26053 75.750098 389.89938 67.850098 365.10938 C 62.040098 347.29938 58.100469 328.70928 56.730469 310.00928 C 55.470469 300.79928 56.189512 291.29 55.999512 282 C 55.769512 275.6 56.989727 269.38977 57.219727 263.00977 C 62.829727 215.01977 82.60043 168.83068 114.19043 132.20068 C 120.49043 124.33068 128.10928 117.35025 135.25928 110.26025 C 142.03928 104.07025 149.43068 98.120586 156.95068 92.850586 C 191.37068 68.040586 232.79072 53.390039 274.99072 49.790039 C 281.92572 49.040039 288.71061 48.817344 295.49561 48.808594 z M 368.80957 166.81934 C 366.68957 179.83934 361.7202 192.29047 353.9502 202.98047 C 348.3802 210.31047 342.14936 217.15059 335.33936 223.35059 C 323.17936 235.24059 310.84053 246.98951 299.04053 259.24951 C 291.29053 251.23951 283.07949 243.68979 275.22949 235.77979 C 266.47949 227.25979 257.11953 219.10021 249.26953 209.72021 C 238.79953 197.47021 231.18936 182.93061 228.83936 166.87061 C 275.49936 166.90061 322.14957 167.07934 368.80957 166.81934 z M 299.2207 299.81982 C 302.2307 302.21982 304.7002 304.91961 307.4502 307.59961 C 314.4602 314.56961 321.52 321.49 328.5 328.5 C 331.5 331.56 334.67008 334.18051 337.33008 337.52051 C 311.93008 337.30051 286.50986 337.64943 261.10986 337.41943 C 273.80986 324.87943 286.4307 312.26982 299.2207 299.81982 z M 358.76953 365.44043 C 364.23953 374.81043 366.84973 385.13027 368.46973 395.78027 C 351.64973 395.64027 334.82 395.79021 318 395.72021 C 288.46 395.84021 258.89963 395.53064 229.36963 395.91064 C 230.49963 387.85064 232.24037 380.08039 235.63037 372.65039 C 236.73037 370.34039 237.74023 367.63951 239.49023 365.74951 C 242.62023 365.31951 245.85 365.53023 249 365.49023 C 285.58 365.39023 322.18953 365.58043 358.76953 365.44043 z M 368.15039 425.04932 C 367.57039 430.44932 365.62039 435.64945 363.65039 440.68945 C 361.87039 445.01945 359.91973 449.47055 357.21973 453.31055 C 356.42973 454.60055 355.3593 454.3502 354.0293 454.4502 C 319.3493 454.4502 284.68049 454.50988 250.00049 454.37988 C 247.46049 454.26988 244.52059 454.75967 242.10059 453.90967 C 240.42059 452.27967 239.36971 449.89012 238.19971 447.87012 C 234.25971 440.61012 231.53061 433.19059 229.87061 425.10059 C 275.96061 424.92059 322.06039 425.02932 368.15039 425.04932 z M 266.10059 481.04004 C 287.97059 481.10004 309.83043 480.98984 331.69043 481.08984 C 320.69043 491.71984 309.6102 502.38033 299.2002 513.59033 C 291.3202 506.20033 283.8993 498.36021 276.0293 490.97021 C 272.5993 487.78021 269.48059 484.29004 266.10059 481.04004 z M 299.22949 555.66943 C 302.47949 557.98943 305.16033 561.07064 308.09033 563.91064 C 319.01033 574.66064 329.81068 585.52006 340.70068 596.31006 C 350.22068 605.69006 358.21047 616.90045 363.48047 629.21045 C 366.36047 635.91045 367.59928 642.91996 369.25928 649.95996 C 322.50928 650.06996 275.75049 650.07996 229.00049 649.95996 C 230.68049 641.52996 232.69965 633.34063 236.63965 625.64063 C 241.63965 614.61062 249.69928 604.74025 258.25928 596.26025 C 265.16928 589.17025 272.32029 582.3198 279.30029 575.2998 C 286.04029 568.8498 292.36949 561.97943 299.22949 555.66943 z M 208.00049 680.96045 C 250.33049 681.01045 292.66951 680.92045 334.99951 680.96045 C 353.32951 680.99045 371.67 680.92949 390 680.97949 C 397.64 680.54949 405.30057 687.16951 405.08057 694.99951 C 405.31057 702.92951 397.78 709.51023 390 708.99023 C 329.01 708.99023 267.98 709.00998 207 708.97998 C 198.65 709.04998 191.29051 700.80998 193.52051 692.47998 C 195.00051 685.76998 201.05049 680.73045 208.00049 680.96045 z M 390.01025 738.08057 C 396.39025 737.88057 402.49029 742.47969 404.55029 748.42969 C 406.36029 754.68969 403.45018 761.66996 397.68018 764.70996 C 392.70018 767.67996 387.56049 766.52043 382.00049 766.69043 C 323.99049 766.72043 265.97973 766.66947 207.96973 766.70947 C 201.84973 766.44947 196.15945 762.97939 193.93945 757.12939 C 191.49945 751.01939 194.68955 743.44 200.28955 740.25 C 203.65955 738.18 207.18049 738.11936 211.00049 738.08936 C 270.66049 738.06936 330.35025 738.05057 390.01025 738.08057 z M 349.82959 797.26025 C 338.32959 810.90025 320.7 819.39959 303 820.82959 C 285.56 822.11959 267.85994 815.89037 254.93994 804.13037 C 252.66994 802.02037 250.47059 800.11018 248.85059 797.43018 C 282.50059 797.28018 316.18959 797.57025 349.82959 797.26025 z "
     style="fill:#404d54;fill-opacity:1" />
</svg>
