<?xml version="1.0" encoding="UTF-8" standalone="no"?>
<svg
   version="1.1"
   viewBox="0 0 828 269"
   width="828.0pt"
   height="269.0pt"
   id="svg28"
   sodipodi:docname="logo_helena.svg"
   inkscape:version="1.4.2 (f4327f4, 2025-05-13)"
   xmlns:inkscape="http://www.inkscape.org/namespaces/inkscape"
   xmlns:sodipodi="http://sodipodi.sourceforge.net/DTD/sodipodi-0.dtd"
   xmlns="http://www.w3.org/2000/svg"
   xmlns:svg="http://www.w3.org/2000/svg">
  <defs
     id="defs28" />
  <sodipodi:namedview
     id="namedview28"
     pagecolor="#ffffff"
     bordercolor="#000000"
     borderopacity="0.25"
     inkscape:showpageshadow="2"
     inkscape:pageopacity="0.0"
     inkscape:pagecheckerboard="0"
     inkscape:deskcolor="#d1d1d1"
     inkscape:document-units="pt"
     inkscape:zoom="0.74425552"
     inkscape:cx="397.04106"
     inkscape:cy="497.14109"
     inkscape:window-width="2400"
     inkscape:window-height="1262"
     inkscape:window-x="-8"
     inkscape:window-y="474"
     inkscape:window-maximized="1"
     inkscape:current-layer="svg28" />
  <path
     d="M 41.99 23.75 C 49.67 23.97 57.36 23.76 65.04 23.87 C 64.70 40.25 65.14 56.65 64.96 73.04 C 83.30 72.92 101.63 73.07 119.97 72.97 C 119.99 56.61 120.08 40.25 119.91 23.89 C 127.61 23.83 135.31 23.94 143.00 23.83 C 143.00 63.89 143.00 103.95 143.00 144.01 C 135.31 144.00 127.62 144.00 119.93 144.01 C 120.06 126.75 119.99 109.48 119.97 92.22 C 101.63 92.27 83.24 92.49 64.89 92.09 C 65.17 109.39 64.82 126.70 65.01 144.00 C 57.34 144.02 49.67 143.99 41.99 144.00 C 42.00 103.92 42.00 63.84 41.99 23.75 Z"
     fill="#4c4f51"
     id="path2" />
  <path
     d="m 187,23.95 c 27.15,-0.19 54.54268,-0.104535 81.70268,-0.104535 L 268.66762,42.043401 210.02,42.03 210.01,73.98 h 52 L 262,92.04 h -52 c 0.04,10.96 0.03,21.92 0.01,32.88 l 58.64175,0.27082 L 268.69,144.01 C 241.45,144 214.22,144 186.99,144.01 187.01,103.99 187,63.97 187,23.95 Z"
     fill="#4c4f51"
     id="path3"
     sodipodi:nodetypes="ccccccccccccc" />
  <path
     d="m 308.99,23.63 22.96,0.24 0.03,100.8 54.38,0.02 -0.01,19.31 -77.35,0.03 z"
     fill="#4c4f51"
     id="path4"
     sodipodi:nodetypes="ccccccc" />
  <path
     d="m 421.62732,23.62 80.49417,0.01105 L 501.91,42 444.11,42.02 444.03,74 495.01,73.97 C 495,80 495,86.02 495.01,92.04 l -50.89,-0.02 0.04,32.83 57.85,-0.06 C 502,131.2 502,137.6 502.02,144 c -26.8,0.01 -53.59,-0.02 -80.38,0.03 z"
     fill="#4c4f51"
     id="path5"
     sodipodi:nodetypes="ccccccccccccc" />
  <path
     d="m 542,23.77 24.9,0.08 55.99,86.42 -0.02,-86.57 22.2,0.17 -0.05,120.13 -24.18,0.05 -56.71,-86.47 0.31,86.43 h -22.45 z"
     fill="#4c4f51"
     id="path6"
     sodipodi:nodetypes="ccccccccccc" />
  <path
     d="m 724.18,23.97 22.63,0.01 47.21,120.03 -23.67,-0.02 L 758.81,113 711.58895,112.88978 700.81,144 l -22.84,0.06 z"
     fill="#4c4f51"
     id="path7"
     sodipodi:nodetypes="ccccccccc" />
  <path
     d="M 735.44 49.65 C 736.59 53.34 737.95 56.95 739.25 60.58 C 741.25 65.92 743.46 71.17 745.25 76.59 C 747.52 82.72 749.93 88.80 752.21 94.92 C 740.99 94.74 729.76 94.82 718.54 94.97 C 719.36 91.27 720.82 87.83 722.30 84.36 C 725.78 75.37 729.02 66.30 732.30 57.24 C 733.26 54.66 733.65 51.70 735.44 49.65 Z"
     fill="#ffffff"
     id="path8" />
  <path
     d="M 146.46 194.43 C 154.49 192.68 164.08 195.14 169.34 201.72 C 174.80 208.33 176.30 217.85 174.16 226.03 C 173.02 231.56 169.85 236.92 165.00 239.95 C 156.19 245.87 143.83 245.18 135.87 238.14 C 126.08 228.56 125.63 211.75 134.16 201.23 C 137.42 197.55 141.75 195.54 146.46 194.43 Z"
     fill="#4c4f51"
     id="path9" />
  <path
     d="M 363.46 194.48 C 371.75 192.77 380.97 194.83 386.79 201.25 C 390.67 205.91 392.28 212.05 392.59 218.00 C 392.42 223.62 392.01 228.87 388.79 233.68 C 383.24 243.00 370.47 246.04 360.67 242.35 C 351.83 239.50 346.77 230.91 345.98 222.02 C 345.80 217.37 345.81 212.91 347.65 208.56 C 350.25 201.46 356.14 196.29 363.46 194.48 Z"
     fill="#4c4f51"
     id="path10" />
  <path
     d="M 719.20 194.31 C 725.31 195.53 731.06 199.63 733.45 205.48 C 734.01 207.01 735.33 209.13 734.80 210.75 C 732.25 211.22 729.60 211.23 727.03 210.98 C 724.90 208.08 724.28 205.00 720.88 203.13 C 717.63 201.58 713.53 200.31 710.07 201.89 C 705.76 203.15 702.17 206.32 700.57 210.54 C 699.06 214.91 698.50 219.50 699.68 224.03 C 700.88 228.68 703.40 233.07 707.98 235.06 C 714.84 237.67 723.99 235.68 726.46 227.96 C 729.32 227.74 732.20 227.60 735.07 227.53 C 735.02 230.51 733.39 233.26 731.78 235.69 C 726.04 243.84 713.82 246.04 704.99 242.09 C 699.46 240.17 695.53 235.88 693.22 230.61 C 689.49 221.73 690.16 210.75 695.77 202.80 C 701.01 195.53 710.63 192.80 719.20 194.31 Z"
     fill="#4c4f51"
     id="path11" />
  <path
     d="M 783.74 198.21 C 786.87 200.83 787.58 205.21 788.22 209.02 C 785.53 209.01 782.84 209.01 780.16 208.99 C 780.05 208.14 779.94 207.30 779.84 206.46 C 778.67 205.22 777.52 203.86 776.19 202.80 C 772.55 200.47 768.33 200.59 764.63 202.76 C 760.86 204.46 760.38 210.87 764.41 212.66 C 769.68 214.63 775.35 215.20 780.66 217.15 C 784.20 219.23 787.33 221.54 788.32 225.77 C 789.49 228.95 788.39 231.58 787.89 234.73 C 786.48 237.39 784.84 239.73 782.17 241.25 C 774.70 245.25 765.73 244.67 758.46 240.52 C 754.25 238.22 752.16 232.53 751.81 227.99 C 754.47 227.95 757.12 227.92 759.78 227.93 C 760.64 232.05 762.05 234.39 766.20 235.71 C 769.98 236.42 775.88 236.89 778.76 233.77 C 781.43 231.14 780.85 226.24 777.23 224.81 C 771.66 222.67 763.98 222.20 758.38 218.63 C 756.37 217.42 755.37 215.47 754.03 213.62 C 753.52 210.04 753.50 206.92 754.02 203.34 C 755.94 200.06 758.07 197.20 761.69 195.68 C 768.82 192.85 777.66 193.13 783.74 198.21 Z"
     fill="#4c4f51"
     id="path12" />
  <path
     d="m 41.895526,194.79404 22.013136,0.003 c 5.132873,7.7e-4 9.451232,3.78664 11.081338,8.42268 2.009564,5.71522 0.77,12.75 -6.06,14.84 4.66,2.03 6.837217,3.35321 8.07,8.21 0.799596,3.15017 0.508828,6.67993 -1.03,9.68 -2.036261,3.96985 -6.747018,6.21851 -10.887018,6.96851 -7.66,0.16 -15.412982,0.0215 -23.092982,0.0815 0.01,-16.02 -0.08447,-32.17596 -0.09447,-48.20596 z"
     fill="#4c4f51"
     id="path13"
     sodipodi:nodetypes="csscsscccc" />
  <path
     d="M 97.97 194.91 C 100.65 194.95 103.33 194.97 106.01 194.97 C 105.99 210.98 106.00 226.99 106.00 243.01 C 103.31 243.01 100.61 243.01 97.91 243.00 C 98.00 226.97 97.92 210.94 97.97 194.91 Z"
     fill="#4c4f51"
     id="path14" />
  <path
     d="m 197.98,194.93 8.34,0.03 -0.007,48.06227 L 197.98,243.01 Z"
     fill="#4c4f51"
     id="path15"
     sodipodi:nodetypes="ccccc" />
  <path
     d="m 231.91,194.96 8.84,0.03 21.67938,35.6771 L 262.14,195.04 271,194.97 V 243 l -8.84,0.01 -22.07,-34.32 -0.06,34.32 -8.06,-0.01 z"
     fill="#4c4f51"
     id="path16"
     sodipodi:nodetypes="ccccccccccc" />
  <path
     d="m 296.99,194.96 33.03,-0.02 -0.02,7.08 -24.96,0.01 0.02,13.92 20.95,0.04 v 7.03 L 305.06,223 305.05,243.01 297,243 Z"
     fill="#4c4f51"
     id="path17"
     sodipodi:nodetypes="ccccccccccc" />
  <path
     d="M 416.99 194.98 C 423.67 195.00 430.37 194.89 437.05 195.01 C 442.04 195.68 447.98 198.17 449.58 203.44 C 450.86 207.81 451.45 212.21 449.39 216.46 C 447.71 220.24 444.36 221.94 440.76 223.50 C 445.50 229.84 449.85 236.47 454.29 243.02 C 450.88 242.99 447.47 243.00 444.06 243.04 C 440.16 236.91 436.28 230.63 431.66 225.00 C 429.45 225.02 427.25 225.02 425.04 225.01 C 425.05 231.01 425.06 237.01 425.01 243.01 C 422.33 243.01 419.66 243.00 416.99 243.00 C 417.01 227.00 416.99 210.99 416.99 194.98 Z"
     fill="#4c4f51"
     id="path18" />
  <path
     d="m 475.71,195 h 10.84 l 11.58,21.21 11.96,-21.16 10.61,-0.04 0.29,47.99 -8.03,0.01 -0.1,-37.32 -7.02,12.21 -5.14,8.98 -4.21,0.29 -2.48,-3.15 -10.63,-18.05 0.31,37.06 -7.99,-0.03 z"
     fill="#4c4f51"
     id="path19"
     sodipodi:nodetypes="cccccccccccccccc" />
  <path
     d="m 559.05,195.03 9.69,-0.05 18.52,48.02 h -9.12 l -4.47,-12.99 -19.22,0.05 -4.64,12.94 -8.78,0.02 z"
     fill="#4c4f51"
     id="path20"
     sodipodi:nodetypes="ccccccccc" />
  <path
     d="m 597.35,194.96 40.12,0.05 0.002,7.19425 -15.32193,0.006 -0.1,40.8 -8.12,0.01 -0.02,-40.93 -16.59342,0.0423 z"
     fill="#4c4f51"
     id="path21"
     sodipodi:nodetypes="ccccccccc" />
  <path
     d="M 658.99 194.95 C 661.67 194.97 664.34 194.99 667.01 194.99 C 667.00 210.99 666.99 227.00 667.01 243.00 C 664.34 243.01 661.67 243.01 659.00 243.01 C 658.95 226.99 658.99 210.97 658.99 194.95 Z"
     fill="#4c4f51"
     id="path22" />
  <path
     d="M 149.22 201.28 C 153.66 200.45 159.97 202.61 162.71 206.34 C 168.36 213.86 168.30 224.91 162.14 232.11 C 156.56 237.81 146.56 237.66 140.97 232.04 C 134.84 225.33 134.50 214.15 139.85 206.89 C 142.15 203.74 145.50 202.13 149.22 201.28 Z"
     fill="#ffffff"
     id="path23" />
  <path
     d="m 50.01,202.01 12.89,0.18 c 1.651323,0.0231 3.459172,1.59601 4.09,3.11 0.843019,2.02324 1.032635,4.62076 0.05,6.58 -0.838142,1.67114 -3.272566,2.94889 -5.19,2.97 l -11.81,0.13 C 49.99,210.66 50,206.33 50.01,202.01 Z"
     fill="#ffffff"
     id="path24"
     sodipodi:nodetypes="csssscc" />
  <path
     d="M 363.50 202.38 C 366.69 201.13 369.79 200.61 373.11 201.77 C 378.51 203.01 381.79 207.33 383.63 212.29 C 385.00 218.69 384.98 225.55 380.84 230.96 C 375.26 238.27 362.81 237.84 357.42 230.55 C 353.21 223.95 352.99 215.48 356.43 208.50 C 357.91 205.62 360.51 203.54 363.50 202.38 Z"
     fill="#ffffff"
     id="path25" />
  <path
     d="M 425.00 202.01 C 429.67 202.03 434.15 201.65 438.67 203.13 C 440.09 204.56 441.98 205.73 441.98 207.96 C 442.06 210.70 442.56 213.27 440.20 215.22 C 436.03 219.31 430.36 217.64 425.03 217.97 C 424.99 212.65 425.01 207.33 425.00 202.01 Z"
     fill="#ffffff"
     id="path26" />
  <path
     d="m 563.57,203.7 4.15,10.64 2.62,8.19 -13.55,-0.05 z"
     fill="#ffffff"
     id="path27"
     sodipodi:nodetypes="ccccc" />
  <path
     d="m 50.06,222.04 c 0.0397,0.0366 12.464188,-1.26054 16.73,2.19 3.164292,2.55954 3.47563,6.94476 1,9.53 -4.320452,4.51174 -11.216579,2.48281 -17.416579,2.91281 C 50.383421,232.02281 50.06,226.69 50.06,222.04 Z"
     fill="#ffffff"
     id="path28"
     sodipodi:nodetypes="csscc" />
</svg>
