<?xml version="1.0" encoding="UTF-8" standalone="no"?>
<!-- Created with Inkscape (http://www.inkscape.org/) -->

<svg
   version="1.1"
   id="svg1"
   width="349"
   height="525"
   viewBox="0 0 349 525"
   sodipodi:docname="logo_helena_woman.svg"
   inkscape:version="1.4.2 (f4327f4, 2025-05-13)"
   xmlns:inkscape="http://www.inkscape.org/namespaces/inkscape"
   xmlns:sodipodi="http://sodipodi.sourceforge.net/DTD/sodipodi-0.dtd"
   xmlns="http://www.w3.org/2000/svg"
   xmlns:svg="http://www.w3.org/2000/svg">
  <defs
     id="defs1">
    <linearGradient
       id="swatch1">
      <stop
         style="stop-color:#000000;stop-opacity:1;"
         offset="0"
         id="stop1" />
    </linearGradient>
  </defs>
  <sodipodi:namedview
     id="namedview1"
     pagecolor="#ffffff"
     bordercolor="#000000"
     borderopacity="0.25"
     inkscape:showpageshadow="2"
     inkscape:pageopacity="0.0"
     inkscape:pagecheckerboard="0"
     inkscape:deskcolor="#d1d1d1"
     inkscape:zoom="0.99047619"
     inkscape:cx="32.8125"
     inkscape:cy="168.60577"
     inkscape:window-width="1650"
     inkscape:window-height="1012"
     inkscape:window-x="2392"
     inkscape:window-y="-8"
     inkscape:window-maximized="1"
     inkscape:current-layer="svg1" />
  <path
     style="display:inline;fill-opacity:1;fill-rule:nonzero;fill:#4d4f51"
     d="m 218.67221,504.47437 c -3.75529,-5.21588 -9.15263,-12.02717 -11.9941,-15.13619 -5.50348,-6.02168 -19.30154,-17.57497 -23.71624,-19.8579 l -2.65901,-1.37502 -0.60892,-8.80263 C 178.64589,444.15174 172.79188,428.1104 162.73905,412.8423 L 156.58789,403.5 147.04394,394 c -5.24917,-5.225 -10.79267,-10.14455 -12.31889,-10.93233 l -2.77496,-1.43234 -2.78823,3.33986 -2.78824,3.33985 9.62525,9.59248 c 14.67878,14.6288 23.41233,28.05863 29.00351,44.59952 1.63139,4.82628 3.26611,11.03626 3.63273,13.79995 l 0.66658,5.0249 -3.40085,-2.5508 c -1.87046,-1.40295 -8.68834,-5.79035 -15.15084,-9.74979 -11.13037,-6.81934 -15.26549,-9.90059 -8.79966,-6.55698 L 144.90068,444 h 9.11705 9.11705 l -0.67979,-2.25 c -0.37388,-1.2375 -0.9667,-2.55619 -1.31738,-2.93042 -0.35069,-0.37424 -6.95614,-0.79532 -14.67879,-0.93573 l -14.04118,-0.25531 -8.95882,-5.81294 -8.95882,-5.81294 20.75,0.65541 c 11.4125,0.36048 20.75,0.33753 20.75,-0.051 0,-0.38852 -0.6501,-1.96356 -1.44467,-3.50009 l -1.44468,-2.79369 -12.21232,-0.65665 C 134.18154,419.29549 123.08858,419 116.24729,419 h -12.43871 l -2.90429,-1.71561 c -1.597359,-0.94358 -2.904244,-1.95608 -2.904187,-2.25 5.7e-5,-0.29391 3.262557,-4.2814 7.249997,-8.86108 25.83923,-29.67703 31.07264,-36.75709 36.25791,-49.05183 4.11047,-9.74631 5.49199,-16.27674 5.49199,-25.9606 0,-22.91833 -15.46953,-48.52844 -41.23419,-68.26403 l -6.734187,-5.15835 -3.515811,2.68164 C 93.582115,261.89504 92,263.50971 92,264.0083 c 0,0.49858 3.04582,3.33672 6.76849,6.30698 20.49724,16.35441 34.32199,37.77684 35.83784,55.53324 l 0.56783,6.65148 -1.50415,7.11029 c -2.76521,13.07145 -9.82392,24.16682 -29.42486,46.25202 -4.08192,4.59927 -9.519416,11.06361 -12.083326,14.36519 l -4.661656,6.00288 -5.352448,-5.86519 C 70.946228,388.09064 56.127506,362.12614 50.899177,345.6133 c -1.319547,-4.16758 -2.640645,-7.58549 -2.935772,-7.59536 -0.920272,-0.0308 0.76362,15.12522 2.529573,22.7676 3.217447,13.9239 8.506785,24.93555 15.908709,33.11967 L 70.5,398.43661 66,395.00185 C 44.398243,378.51365 31.626698,354.41389 26.518126,320.5 24.615944,307.87213 24.609113,299.73669 26.491712,289.03912 28.674347,276.63665 30.663541,270.50479 35.587684,261 46.341658,240.24222 63.930233,223.37623 91.176438,207.69497 100.41502,202.3778 127.03692,190 129.23439,190 h 1.04542 l -0.55991,5.42493 c -0.30794,2.98371 -1.45524,7.44899 -2.54954,9.92284 l -1.98964,4.49791 -13.98859,0.32716 -13.988597,0.32716 -2.101766,1.90499 C 93.945795,213.45273 93,214.67788 93,215.12753 c 0,0.44966 6.321152,0.94241 14.047,1.09501 l 14.04701,0.27746 -5.12699,5.75 -5.12699,5.75 H 93.466524 76.093021 l 1.703489,2.97062 1.70349,2.97062 12,0.27938 12,0.27938 -12.486623,10 c -22.052096,17.66058 -30.674034,27.65705 -36.681,42.5288 l -2.458398,6.08638 -0.547657,6.69241 -0.547658,6.69241 1.11518,6 c 1.553334,8.3574 7.696603,20.62747 14.769796,29.5 8.279275,10.38542 26.639225,25.54277 37.83636,31.23641 l 3,1.52547 4.25256,-4.79194 4.25257,-4.79194 -8.25257,-4.74831 C 87.212192,348.61129 73.156176,334.64671 66.381324,319.32757 l -2.483468,-5.61556 -0.575628,-6.16426 -0.575627,-6.16426 1.717963,-5.94175 c 3.593131,-12.42719 13.610163,-24.71888 35.00444,-42.95323 21.075866,-17.96296 29.415276,-28.01728 34.086046,-41.09552 l 2.46177,-6.89299 -0.15448,-8.39438 -0.15447,-8.39439 17.39606,-6.71358 c 36.94863,-14.25942 51.16275,-21.65166 70.71962,-36.77868 l 11.85799,-9.17202 21.90923,-22.10667 c 12.05008,-12.15867 24.74245,-24.148517 28.20527,-26.644105 3.46282,-2.495589 6.07976,-4.75371 5.81542,-5.018047 -0.88535,-0.885352 -15.33929,6.648426 -20.25353,10.556678 -2.67186,2.124908 -10.41038,9.129754 -17.19672,15.566334 -21.36365,20.26259 -38.28089,32.68663 -57.66121,42.34644 -14.42994,7.19238 -25.08769,11.2182 -50.72451,19.16053 -27.7941,8.61065 -39.35938,12.88419 -52.001527,19.21532 C 54.3978,207.84283 31.937795,234.12001 25.500709,268 l -1.424974,7.5 0.367653,-13.5 0.367654,-13.5 2.074027,-7 C 30.060422,230.78294 33.833531,222.47854 40.611275,211.28941 54.74988,187.9485 68.299294,175.34374 118,139.29619 c 12.925,-9.37441 30.925,-23.02525 40,-30.3352 31.10332,-25.05386 49.96382,-35.697031 74.5,-42.041106 l 9,-2.327041 16,-0.04642 16,-0.04642 5.71292,1.767154 c 3.1421,0.971935 6.5171,2.068689 7.5,2.437231 l 1.78708,0.670077 -1.43719,-1.76524 C 285.19019,65.309155 277.9191,61.657009 271,59.541144 l -5.5,-1.681903 -12.11979,-0.569484 -12.11979,-0.569484 -9.88021,1.238491 c -43.30507,5.428315 -95.04532,31.1362 -132.551052,65.859886 -3.23971,2.9994 -5.691771,5.65207 -5.449024,5.89482 0.242747,0.24274 6.444022,-3.57435 13.780616,-8.48244 7.33659,-4.90808 19.17513,-12.43902 26.30788,-16.73541 13.73551,-8.273552 44.40179,-23.95853 45.22762,-23.132706 0.26928,0.269287 -0.78971,1.154624 -2.35332,1.967415 C 172.35331,85.4042 155.28585,97.901283 144,107.01238 c -5.225,4.21815 -18.5,14.34421 -29.5,22.50236 -27.92521,20.71073 -37.369292,28.37563 -49.863504,40.46969 -11.672368,11.29853 -17.938576,19.31339 -23.782675,30.41947 l -3.686378,7.00557 -0.561795,-3.45474 C 35.199254,195.30618 33.9138,181.34919 33.34023,168.5 l -0.624942,-14 1.207548,-12 C 38.495411,97.060057 56.047767,60.581154 83.263368,39.956015 104.0656,24.191203 122.22869,17.315334 149.68048,14.812977 l 13.18049,-1.201461 14.81951,1.206872 c 23.83046,1.940704 44.71038,7.225204 68.81952,17.41753 30.77614,13.010854 54.55526,28.780576 58.83181,39.015794 0.79545,1.903773 1.77826,4.988454 2.18402,6.854847 l 0.73776,3.393441 7.6252,7.5 c 8.33111,8.194324 12.23156,14.48683 14.5883,23.53496 3.9974,15.34706 0.23445,30.88248 -11.03079,45.54085 l -4.28512,5.57581 -1.12316,6.42419 c -1.60249,9.16583 -3.71074,15.28818 -8.41055,24.42419 l -4.11542,8 0.10699,6.5 0.10698,6.5 2.29455,6 c 1.262,3.3 4.44151,9.825 7.06558,14.5 2.62407,4.675 5.31365,10.36909 5.97683,12.65354 l 1.20579,4.15354 -0.66694,3.55511 -0.66694,3.55511 -2.9835,2.12443 C 310.80518,264.27491 301.14727,268 298.4936,268 c -2.38987,0 -2.77707,2.38579 -1.05579,6.50539 0.8592,2.05637 1.56219,4.99929 1.56219,6.53981 v 2.80095 l -2.96363,2.96363 -2.96362,2.96362 0.0695,5.81655 0.0695,5.81655 -4.36592,4.12505 -4.36592,4.12506 1.18322,3.92169 c 1.71637,5.68879 1.54718,9.36164 -0.6547,14.21313 l -1.9477,4.29144 -5.65797,2.5903 -5.65797,2.59031 -6.74103,-0.62652 c -3.70757,-0.34458 -10.28764,-1.68849 -14.62237,-2.98647 -4.33474,-1.29797 -11.74687,-3.51488 -16.47142,-4.92646 -19.6638,-5.87507 -32.77509,-3.21693 -43.83792,8.88757 -9.45044,10.34029 -16.1134,26.82809 -18.15707,44.93053 l -1.12419,9.95787 1.49885,8.5 c 2.09508,11.88123 4.83465,18.45443 11.72404,28.13007 26.55326,37.29215 37.39271,58.13546 42.44596,81.61993 0.38463,1.7875 0.32607,3.24051 -0.13013,3.2289 -0.45621,-0.0116 -3.90197,-4.28864 -7.65725,-9.50453 z M 143,407.17431 c 0,-0.45412 -1.15995,-1.91662 -2.57767,-3.25 l -2.57767,-2.42431 -11.28472,-0.33267 -11.28472,-0.33267 -2.23561,2.83267 -2.23561,2.83267 6.848,0.57341 c 11.14521,0.93324 25.348,0.98978 25.348,0.1009 z M 129.30272,344.25 c 0.23142,-0.4125 0.71655,-1.9875 1.07807,-3.5 L 131.0381,338 H 107.35244 83.66678 l 3.91661,3.45837 3.91661,3.45838 18.69098,0.0416 c 10.28004,0.0229 18.88033,-0.29587 19.11174,-0.70837 z m 146.48875,-16.93122 c 1.48969,-1.10539 3.27369,-3.69789 3.96443,-5.7611 l 1.2559,-3.75129 -1.42427,-5.45414 c -0.78335,-2.99978 -2.14638,-6.55622 -3.02896,-7.9032 L 274.95389,302 h -2.47694 C 271.11463,302 270,301.60078 270,301.11285 c 0,-0.48794 3.20415,-1.06821 7.12033,-1.28949 l 7.12033,-0.40234 1.89556,-2.34091 1.89556,-2.34092 -1.8183,-3.1196 -1.8183,-3.11959 -9.44759,-0.6261 -9.44759,-0.6261 -3.75,-1.57287 c -2.0625,-0.86508 -3.748,-1.70834 -3.74555,-1.8739 0.002,-0.16557 6.41495,-0.35409 14.25,-0.41894 l 14.24555,-0.1179 2.77563,-1.11709 c 3.82743,-1.5404 4.2956,-3.49364 2.33114,-9.72562 -2.0915,-6.63501 -3.38885,-7.97111 -8.53966,-8.79476 -5.50071,-0.8796 -5.13823,-2.20007 0.68289,-2.48772 8.96398,-0.44295 23.41387,-3.01635 25.83133,-4.60033 L 312,254.95389 v -2.80046 -2.80046 l -7.41037,-14.92648 -7.41036,-14.92649 -1.1997,-5.93867 -1.1997,-5.93866 0.6058,-4.41978 c 0.33319,-2.43089 2.35705,-8.30908 4.49747,-13.06266 5.12635,-11.3849 6.95861,-17.80386 7.73318,-27.09157 l 0.6393,-7.66571 -1.17999,-10.14986 c -0.64899,-5.58242 -2.06706,-13.35098 -3.15126,-17.26347 C 301.4023,118.86844 294.95904,102 294.00471,102 c -2.43171,0 -15.05061,16.08795 -29.02167,37 -13.35561,19.99082 -21.97061,27.83499 -39.95808,36.38276 -5.06961,2.40912 -8.81081,4.63156 -8.31377,4.93875 0.49704,0.30718 3.35286,0.89933 6.34626,1.31587 l 5.44255,0.75734 -4,0.74501 c -2.2,0.40976 -6.25,0.77783 -9,0.81795 -2.75,0.0401 -5.56665,0.43267 -6.25921,0.87234 l -1.25921,0.7994 6.75921,1.31347 c 3.71756,0.72241 7.43421,1.6921 8.25921,2.15488 l 1.5,0.84141 -12,0.0457 c -6.6,0.0251 -12.64387,0.45318 -13.43081,0.95118 l -1.43082,0.90545 3.43082,0.5016 c 1.88694,0.27588 6.95884,0.98685 11.27087,1.57994 13.18343,1.8133 11.2997,2.59334 -5.40715,2.23907 L 191,195.82428 v 0.86778 c 0,0.47728 4.6125,1.65201 10.25,2.61051 5.6375,0.9585 12.275,2.41591 14.75,3.23869 l 4.5,1.49596 -6,-0.52654 c -3.3,-0.2896 -11.4,-0.77644 -18,-1.08186 l -12,-0.55532 1.5,0.93792 c 0.825,0.51585 6.225,1.88067 12,3.03292 10.53352,2.10169 21.50078,5.03842 20.84863,5.58269 -0.19174,0.16004 -6.42363,-0.532 -13.84863,-1.53785 -12.38595,-1.67791 -29.98612,-2.54196 -28.86105,-1.4169 0.25976,0.25976 5.39726,1.41278 11.41667,2.56227 14.07997,2.68877 34.18114,7.68486 36.29888,9.02199 l 1.6455,1.03896 -2,-0.50005 c -3.69852,-0.92472 -36.92218,-5.49977 -44.88972,-6.18152 l -7.88972,-0.67509 0.61537,0.99568 c 0.33845,0.54763 3.43882,1.5342 6.88972,2.19239 10.13356,1.93277 48.68953,11.91559 50.55928,13.09069 l 1.71507,1.0779 -2,-0.50116 c -10.42287,-2.61175 -53.46113,-9.54422 -59.45,-9.57602 L 165.6,221 l 0.95,0.89387 c 0.5225,0.49163 6.35,2.12152 12.95,3.62198 15.21959,3.46006 48.20926,12.00707 51.5,13.34269 4.3401,1.76153 0.72715,1.24996 -19.96019,-2.82627 -28.15337,-5.54732 -51.9963,-8.65543 -49.83757,-6.49669 0.29457,0.29456 7.00707,2.04972 14.91667,3.90035 22.49252,5.26263 65.76667,18.01183 64.71308,19.06542 -0.18689,0.18688 -4.83804,-0.76259 -10.33589,-2.10995 -22.56517,-5.53005 -41.56501,-9.58738 -50.9961,-10.88999 -5.5,-0.75966 -12.25,-1.69158 -15,-2.07093 l -5,-0.68974 1.01879,1.09842 c 0.56033,0.60413 10.46033,3.60631 22,6.67152 27.84174,7.39543 58.28043,17.02344 57.20838,18.09549 -0.19701,0.197 -3.47871,-0.5466 -7.29268,-1.65245 -21.47203,-6.22576 -66.44365,-15.59821 -70.32112,-14.65549 l -1.61337,0.39225 1.5,0.60985 c 0.825,0.33542 9.825,3.11789 20,6.18327 22.07046,6.64908 57.25683,18.5929 56.62775,19.22198 -0.2456,0.24561 -8.47482,-1.78478 -18.28715,-4.51197 -16.25832,-4.51875 -43.25255,-11.05839 -52.5906,-12.74063 l -3.75,-0.67556 0.005,0.86129 c 0.003,0.47371 10.01505,4.13902 22.25,8.14513 27.24715,8.92158 41.97795,14.22581 47.24536,17.01198 4.79993,2.53891 4.2833,2.74689 -1.62427,0.65392 C 220.28035,277.34165 171.73564,264 168.38339,264 H 166.6 l 0.95,0.82427 c 0.5225,0.45335 7.925,3.37523 16.45,6.49306 8.525,3.11783 21.8,7.97275 29.5,10.78872 11.61302,4.24699 23.12249,9.23782 17.42868,7.55755 -0.86423,-0.25503 -5.81423,-1.6989 -11,-3.20858 C 214.7429,284.94533 203.3,281.57508 194.5,278.96556 c -8.8,-2.60951 -18.025,-5.06561 -20.5,-5.45799 l -4.5,-0.71341 1.05494,1.10786 c 0.98738,1.03691 5.67772,2.82371 43.7218,16.65594 8.1272,2.95492 15.5522,5.87219 16.5,6.48282 l 1.72326,1.11023 -1.57694,-0.47771 c -0.86731,-0.26274 -9.86731,-2.79242 -20,-5.62152 -10.13268,-2.8291 -22.39277,-6.2909 -27.24463,-7.69289 -15.84544,-4.57868 -10.94726,-1.04385 7.66784,5.5336 20.0291,7.07708 46.77093,17.91231 44.59132,18.06747 -0.30933,0.022 -4.58433,-1.33155 -9.5,-3.00793 -13.20717,-4.50403 -40.44458,-12.11637 -41.77104,-11.67421 -1.03851,0.34617 24.27838,10.64015 33.65045,13.68246 7.0991,2.30447 2.99803,2.13302 -7.94009,-0.33194 -5.9823,-1.34814 -11.01248,-2.31796 -11.17818,-2.15515 -0.1657,0.16281 4.57031,2.3523 10.52446,4.86553 5.95416,2.51323 14.41473,6.2052 18.80128,8.20438 11.35078,5.17315 25.18987,10.48469 29.92427,11.48514 2.22819,0.47085 6.43242,0.73105 9.34273,0.57821 l 5.29147,-0.27787 z M 259.79599,218.45764 c -2.58721,-1.34708 -5.96221,-4.0855 -7.5,-6.08538 -5.92473,-7.70502 -8.72253,-10.54526 -12.19632,-12.3813 l -3.59967,-1.90257 3.56309,-0.0442 3.5631,-0.0442 8.819,4.5 c 9.99649,5.10083 12.83704,5.45691 17.65693,2.21344 l 3.39788,-2.28655 1.31038,-3.96345 1.31038,-3.96344 -0.58666,-3.14855 c -0.7944,-4.26344 -3.96679,-8.06528 -8.37649,-10.03849 l -3.65761,-1.63668 -10,0.0866 -10,0.0866 -4.95334,1.53857 c -2.72433,0.84622 -5.15638,1.33554 -5.40454,1.08738 -0.75533,-0.75533 7.89456,-4.21899 16.27734,-6.5179 l 7.91946,-2.17185 10.14163,0.37541 10.14163,0.37542 6.93891,3.48173 6.93891,3.48173 0.30135,2.59379 0.30135,2.59379 -4.44758,3.40621 c -2.44616,1.87341 -5.36098,4.75621 -6.47737,6.40621 l -2.02981,3 -0.32397,5.47214 -0.32397,5.47214 3,0.57547 3,0.57546 -2.96447,0.60472 c -1.63045,0.3326 -4.55545,0.39272 -6.5,0.13361 l -3.53553,-0.47111 2.88648,2.46518 2.88649,2.46517 -4.38649,-0.82262 c -2.41256,-0.45244 -5.65327,-1.30582 -7.20158,-1.89639 C 262.22622,212.75452 262,212.74999 262,214 c 0,0.55 0.5625,1.01001 1.25,1.02224 0.6875,0.0122 2.375,0.95411 3.75,2.09308 l 2.5,2.07085 -2,-0.70654 c -1.1,-0.38859 -2.9,-0.91467 -4,-1.16906 l -2,-0.46251 2.36078,2.07597 c 3.08614,2.71381 1.7483,2.56031 -4.06479,-0.46639 z M 131.18979,320.5 130.78119,317 H 101.90677 73.032357 l 1.669034,3.5 1.669034,3.5 H 103.98441 131.5984 Z M 123.286,298.75 121.3879,295.5 H 94.943949 68.5 l -0.313358,3.25 -0.313359,3.25 H 96.528693 125.1841 Z M 106.5,279 103.62582,276 H 92.000967 80.376117 l -2.217996,3 -2.217996,3 H 92.657154 109.37418 Z M 81,246.8963 c 0,-1.00461 -11.187143,-15.90336 -11.914167,-15.86699 -0.322208,0.0161 -2.058809,1.36914 -3.859112,3.00671 l -3.273279,2.97739 6.659682,8.0497 6.659683,8.04971 2.863597,-2.7435 C 79.711382,248.86039 81,247.29753 81,246.8963 Z m 154,-85.02841 c 2.475,-1.58871 5.40002,-3.67142 6.50005,-4.62823 C 244.29146,154.81168 254,143.49116 254,142.66427 c 0,-0.80137 -26.17024,19.63101 -28.05947,21.90739 l -1.28979,1.5541 2.92463,-0.68465 c 1.60855,-0.37655 4.94963,-1.9845 7.42463,-3.57322 z m -73.37739,-13.958 c 22.70136,-7.21039 39.74167,-15.31537 58.36489,-27.76044 9.74515,-6.51225 23.21954,-17.27575 22.51224,-17.98304 -0.19646,-0.19646 -7.47677,4.04766 -16.17847,9.43137 -18.65914,11.54435 -53.28179,29.33269 -68.82127,35.35881 -6.05,2.34616 -11.1875,4.44072 -11.41667,4.65458 -1.30054,1.21366 4.15969,-0.0869 15.53928,-3.70128 z m 161.52113,-11.27875 2.12327,-6.86887 -0.60073,-6.43305 -0.60073,-6.43305 -2.66282,-5.93357 c -1.46456,-3.26347 -3.36356,-6.50261 -4.22001,-7.19809 l -1.55718,-1.26451 0.77345,2 c 0.42539,1.1 1.45248,5.15 2.28241,9 l 1.50897,7 -0.4336,12.79757 -0.4336,12.79756 0.84865,-1.29756 c 0.46676,-0.71367 1.80412,-4.38856 2.97192,-8.16643 z M 101.36321,87.799371 c 19.397,-15.613877 39.0581,-26.594063 60.30258,-33.677344 L 173.5,50.176294 l 13,-2.193835 13,-2.193835 22.5,0.526281 22.5,0.526281 8.19552,1.572775 c 4.50753,0.865026 10.2877,2.283091 12.84482,3.151254 7.01619,2.382059 6.60429,0.863907 -0.64642,-2.382559 -9.71284,-4.348867 -21.4198,-7.963655 -31.27491,-9.656836 L 224.73802,38 h -17.19279 -17.1928 l -9.42621,1.602161 C 160.34794,43.099822 136.94063,52.980456 119,65.742295 106.97796,74.294018 88.259216,92.877991 80.201625,104.26132 76.790731,109.08005 74,113.30074 74,113.64065 c 0,0.3399 3.875943,-3.49939 8.613206,-8.53176 4.737264,-5.03238 13.174764,-12.821658 18.750004,-17.309519 z"
     id="path1" />
</svg>
