<?xml version="1.0" encoding="UTF-8" standalone="no"?>
<svg
   version="1.1"
   viewBox="0 0 598 872"
   width="598.0pt"
   height="872.0pt"
   id="svg12"
   sodipodi:docname="logo_bulb.svg"
   inkscape:version="1.4.2 (f4327f4, 2025-05-13)"
   xmlns:inkscape="http://www.inkscape.org/namespaces/inkscape"
   xmlns:sodipodi="http://sodipodi.sourceforge.net/DTD/sodipodi-0.dtd"
   xmlns="http://www.w3.org/2000/svg"
   xmlns:svg="http://www.w3.org/2000/svg">
  <defs
     id="defs12" />
  <sodipodi:namedview
     id="namedview12"
     pagecolor="#ffffff"
     bordercolor="#000000"
     borderopacity="0.25"
     inkscape:showpageshadow="2"
     inkscape:pageopacity="0.0"
     inkscape:pagecheckerboard="0"
     inkscape:deskcolor="#d1d1d1"
     inkscape:document-units="pt"
     inkscape:zoom="0.89449541"
     inkscape:cx="398.54872"
     inkscape:cy="581.33333"
     inkscape:window-width="2400"
     inkscape:window-height="1262"
     inkscape:window-x="-8"
     inkscape:window-y="474"
     inkscape:window-maximized="1"
     inkscape:current-layer="svg12" />
  <path
     d="M 341.99 22.05 C 394.51 29.61 444.86 53.10 484.09 88.88 C 509.67 112.12 530.64 140.48 545.24 171.81 C 558.92 201.39 568.06 233.48 570.66 266.01 C 571.84 280.69 571.54 295.30 570.89 310.00 C 570.07 319.73 568.79 329.40 567.04 339.00 C 564.40 354.62 559.50 370.21 554.29 385.16 C 549.60 397.43 544.23 409.43 538.04 421.03 C 524.57 445.55 508.36 468.43 494.50 492.49 C 483.89 511.52 475.03 531.04 469.49 552.19 C 463.38 574.28 462.84 598.77 456.83 620.86 C 453.00 635.62 447.29 649.57 437.22 661.21 C 433.73 664.97 429.84 668.02 425.75 671.07 C 438.24 686.60 437.05 710.87 423.27 725.22 C 424.99 727.43 426.72 729.43 428.25 731.72 C 433.25 738.85 435.02 748.28 434.34 756.85 C 432.79 774.71 419.59 790.44 402.50 795.58 C 396.16 797.72 390.05 797.43 383.47 797.49 C 374.49 817.30 358.12 832.16 338.97 841.96 C 323.16 849.54 305.44 852.84 287.99 850.57 C 271.47 848.45 255.61 841.80 242.48 831.56 C 231.03 822.30 221.53 810.88 215.46 797.39 C 207.34 798.07 199.37 797.74 191.79 794.48 C 182.21 790.74 174.39 783.56 169.27 774.70 C 164.18 765.65 162.71 755.00 164.87 744.86 C 166.22 737.25 170.19 731.02 175.15 725.26 C 161.19 710.60 160.59 687.16 172.25 670.96 C 165.29 665.88 159.18 659.75 154.68 652.37 C 144.77 637.21 141.15 620.27 137.34 602.88 C 134.46 586.39 132.56 568.45 128.02 552.00 C 124.03 536.90 117.98 522.79 111.25 508.75 C 97.07 480.78 78.96 456.50 63.50 429.47 C 54.36 412.97 46.23 395.73 40.13 377.86 C 34.30 358.95 29.63 339.79 27.96 320.02 C 26.33 304.78 26.35 289.31 26.92 274.00 C 28.43 242.14 35.86 210.82 48.25 181.45 C 60.60 152.77 78.01 126.17 99.50 103.51 C 107.42 94.47 116.73 86.56 125.93 78.86 C 157.29 53.64 194.48 35.08 233.83 26.35 C 269.06 17.82 306.18 16.64 341.99 22.05 Z"
     fill="#404d54"
     id="path2" />
  <path
     d="M 316.00 49.11 C 335.02 50.53 353.69 53.47 371.94 59.12 C 392.50 64.90 411.71 73.99 429.88 85.15 C 469.88 110.84 501.99 148.45 520.81 192.13 C 527.94 209.26 533.97 226.59 537.47 244.84 C 540.94 261.97 542.43 279.55 541.89 297.02 C 541.07 310.57 540.08 323.71 537.22 337.03 C 534.55 350.81 530.39 364.32 525.58 377.50 C 516.81 400.50 504.58 421.42 490.53 441.55 C 488.11 445.15 485.75 448.77 483.42 452.42 C 465.34 479.85 449.86 509.33 441.24 541.17 C 436.60 556.99 434.56 572.70 432.52 588.99 C 430.24 603.58 427.67 620.17 420.09 633.04 C 415.66 640.51 407.99 648.36 399.22 650.18 C 398.33 645.50 397.98 640.76 396.94 636.11 C 393.31 619.98 386.53 604.65 376.73 591.31 C 371.49 584.58 365.98 578.09 359.78 572.22 C 346.91 559.41 333.78 546.86 320.88 534.08 C 336.11 519.24 351.23 504.31 366.27 489.27 C 377.17 478.32 385.83 465.11 391.66 450.81 C 403.80 420.69 402.39 385.66 388.70 356.31 C 381.22 339.73 369.35 325.22 356.22 312.77 C 344.58 301.65 333.12 290.35 321.45 279.26 C 334.03 266.57 346.93 254.20 359.56 241.55 C 365.62 235.16 371.96 229.42 377.31 222.37 C 386.92 210.13 393.29 195.99 397.29 181.01 C 400.35 169.26 401.01 157.10 400.89 145.00 C 400.82 140.67 401.30 136.10 400.51 131.83 C 399.80 127.71 396.06 125.14 392.03 125.00 C 386.70 124.82 381.30 124.87 375.97 124.96 C 373.66 124.91 371.39 126.27 369.88 127.94 C 367.78 130.75 367.95 133.66 367.85 136.98 C 321.63 137.01 275.40 137.02 229.18 136.98 C 229.10 133.28 229.55 130.20 226.55 127.47 C 223.03 123.79 218.60 125.15 214.00 124.89 C 209.11 125.08 203.59 124.04 199.64 127.63 C 196.00 131.04 197.12 135.53 196.95 140.00 C 197.19 148.49 196.39 156.77 197.75 165.01 C 200.03 188.45 209.70 211.02 225.59 228.47 C 231.94 236.17 239.42 242.51 246.34 249.66 C 256.56 259.22 266.35 269.24 276.38 279.01 C 264.63 290.72 252.56 302.10 240.85 313.85 C 231.78 322.63 222.82 332.45 216.38 343.36 C 208.17 356.44 202.71 370.86 199.78 385.99 C 196.59 404.28 197.46 423.20 202.74 441.02 C 208.26 459.35 218.45 476.45 232.24 489.76 C 247.07 504.53 261.69 519.55 276.84 534.00 C 267.35 543.12 258.10 552.48 248.70 561.70 C 239.85 570.61 230.87 579.20 223.23 589.23 C 209.92 606.63 200.51 628.17 198.73 650.11 C 193.21 649.07 188.41 645.37 184.39 641.61 C 178.74 635.58 174.94 627.48 172.35 619.71 C 166.51 601.74 165.40 584.39 162.09 565.99 C 157.38 535.23 145.19 505.04 129.92 478.05 C 121.33 462.82 111.50 448.63 101.94 434.04 C 87.90 412.26 75.75 389.90 67.85 365.11 C 62.04 347.30 58.10 328.71 56.73 310.01 C 55.47 300.80 56.19 291.29 56.00 282.00 C 55.77 275.60 56.99 269.39 57.22 263.01 C 62.83 215.02 82.60 168.83 114.19 132.20 C 120.49 124.33 128.11 117.35 135.26 110.26 C 142.04 104.07 149.43 98.12 156.95 92.85 C 191.37 68.04 232.79 53.39 274.99 49.79 C 288.86 48.29 302.13 48.90 316.00 49.11 Z"
     fill="#ffffff"
     id="path3" />
  <path
     d="M 228.84 166.87 C 275.50 166.90 322.15 167.08 368.81 166.82 C 366.69 179.84 361.72 192.29 353.95 202.98 C 348.38 210.31 342.15 217.15 335.34 223.35 C 323.18 235.24 310.84 246.99 299.04 259.25 C 291.29 251.24 283.08 243.69 275.23 235.78 C 266.48 227.26 257.12 219.10 249.27 209.72 C 238.80 197.47 231.19 182.93 228.84 166.87 Z"
     fill="#ffffff"
     id="path4" />
  <path
     d="M 299.22 299.82 C 302.23 302.22 304.70 304.92 307.45 307.60 C 314.46 314.57 321.52 321.49 328.50 328.50 C 331.50 331.56 334.67 334.18 337.33 337.52 C 311.93 337.30 286.51 337.65 261.11 337.42 C 273.81 324.88 286.43 312.27 299.22 299.82 Z"
     fill="#ffffff"
     id="path5" />
  <path
     d="M 239.49 365.75 C 242.62 365.32 245.85 365.53 249.00 365.49 C 285.58 365.39 322.19 365.58 358.77 365.44 C 364.24 374.81 366.85 385.13 368.47 395.78 C 351.65 395.64 334.82 395.79 318.00 395.72 C 288.46 395.84 258.90 395.53 229.37 395.91 C 230.50 387.85 232.24 380.08 235.63 372.65 C 236.73 370.34 237.74 367.64 239.49 365.75 Z"
     fill="#ffffff"
     id="path6" />
  <path
     d="M 229.87 425.10 C 275.96 424.92 322.06 425.03 368.15 425.05 C 367.57 430.45 365.62 435.65 363.65 440.69 C 361.87 445.02 359.92 449.47 357.22 453.31 C 356.43 454.60 355.36 454.35 354.03 454.45 C 319.35 454.45 284.68 454.51 250.00 454.38 C 247.46 454.27 244.52 454.76 242.10 453.91 C 240.42 452.28 239.37 449.89 238.20 447.87 C 234.26 440.61 231.53 433.19 229.87 425.10 Z"
     fill="#ffffff"
     id="path7" />
  <path
     d="M 266.10 481.04 C 287.97 481.10 309.83 480.99 331.69 481.09 C 320.69 491.72 309.61 502.38 299.20 513.59 C 291.32 506.20 283.90 498.36 276.03 490.97 C 272.60 487.78 269.48 484.29 266.10 481.04 Z"
     fill="#ffffff"
     id="path8" />
  <path
     d="M 299.23 555.67 C 302.48 557.99 305.16 561.07 308.09 563.91 C 319.01 574.66 329.81 585.52 340.70 596.31 C 350.22 605.69 358.21 616.90 363.48 629.21 C 366.36 635.91 367.60 642.92 369.26 649.96 C 322.51 650.07 275.75 650.08 229.00 649.96 C 230.68 641.53 232.70 633.34 236.64 625.64 C 241.64 614.61 249.70 604.74 258.26 596.26 C 265.17 589.17 272.32 582.32 279.30 575.30 C 286.04 568.85 292.37 561.98 299.23 555.67 Z"
     fill="#ffffff"
     id="path9" />
  <path
     d="M 208.00 680.96 C 250.33 681.01 292.67 680.92 335.00 680.96 C 353.33 680.99 371.67 680.93 390.00 680.98 C 397.64 680.55 405.30 687.17 405.08 695.00 C 405.31 702.93 397.78 709.51 390.00 708.99 C 329.01 708.99 267.98 709.01 207.00 708.98 C 198.65 709.05 191.29 700.81 193.52 692.48 C 195.00 685.77 201.05 680.73 208.00 680.96 Z"
     fill="#ffffff"
     id="path10" />
  <path
     d="M 211.00 738.09 C 270.66 738.07 330.35 738.05 390.01 738.08 C 396.39 737.88 402.49 742.48 404.55 748.43 C 406.36 754.69 403.45 761.67 397.68 764.71 C 392.70 767.68 387.56 766.52 382.00 766.69 C 323.99 766.72 265.98 766.67 207.97 766.71 C 201.85 766.45 196.16 762.98 193.94 757.13 C 191.50 751.02 194.69 743.44 200.29 740.25 C 203.66 738.18 207.18 738.12 211.00 738.09 Z"
     fill="#ffffff"
     id="path11" />
  <path
     d="M 248.85 797.43 C 282.50 797.28 316.19 797.57 349.83 797.26 C 338.33 810.90 320.70 819.40 303.00 820.83 C 285.56 822.12 267.86 815.89 254.94 804.13 C 252.67 802.02 250.47 800.11 248.85 797.43 Z"
     fill="#ffffff"
     id="path12" />
</svg>
