<?xml version="1.0" encoding="UTF-8" standalone="no"?>
<!DOCTYPE svg PUBLIC "-//W3C//DTD SVG 1.1//EN" "http://www.w3.org/Graphics/SVG/1.1/DTD/svg11.dtd">
<svg xmlns="http://www.w3.org/2000/svg" version="1.1" viewBox="0 0 598 872" width="598.0pt" height="872.0pt">
<path d="M 0.00 0.00 L 598.00 0.00 L 598.00 872.00 L 0.00 872.00 L 0.00 0.00 Z" fill="#ffffff" />
<path d="M 368.03 27.09 C 378.73 30.03 389.53 33.01 399.84 37.17 C 436.79 51.25 470.53 73.55 497.75 102.25 C 521.62 127.30 540.43 157.11 552.71 189.46 C 562.29 213.90 568.54 239.84 570.66 266.01 C 571.77 279.69 571.55 293.30 571.04 307.00 C 568.30 351.09 554.15 394.62 531.51 432.49 C 519.56 452.74 506.23 472.13 494.50 492.49 C 481.32 516.04 470.59 541.31 466.00 568.03 C 462.74 585.80 461.60 602.99 457.05 620.01 C 453.24 635.07 447.47 649.34 437.22 661.21 C 433.74 664.95 429.83 668.04 425.74 671.08 C 438.24 686.52 437.06 710.94 423.27 725.20 C 426.76 729.58 430.13 733.64 432.06 739.01 C 434.34 745.73 435.19 753.01 433.91 760.03 C 431.23 776.79 418.10 791.18 401.82 795.78 C 395.73 797.74 389.78 797.41 383.46 797.49 C 374.28 817.86 356.83 833.37 336.93 842.94 C 325.40 847.97 312.63 851.33 300.00 851.20 C 279.42 851.58 258.67 844.19 242.48 831.56 C 231.02 822.30 221.51 810.85 215.43 797.36 C 207.49 798.13 199.20 797.69 191.79 794.48 C 182.44 790.84 174.79 783.91 169.65 775.36 C 164.26 766.21 162.65 755.23 164.87 744.86 C 166.22 737.20 170.22 731.03 175.17 725.22 C 161.15 710.64 160.61 687.13 172.25 670.96 C 165.59 666.09 159.42 660.03 155.08 652.98 C 144.87 637.68 141.21 620.51 137.34 602.87 C 135.44 592.23 134.15 581.50 132.16 570.86 C 128.71 549.55 121.28 529.45 111.89 510.09 C 97.83 481.82 79.42 457.23 63.85 430.09 C 55.78 415.64 48.60 400.65 42.74 385.16 C 38.24 373.46 35.33 361.01 32.34 348.85 C 27.04 324.09 25.83 299.25 26.93 274.00 C 28.31 244.61 34.72 215.77 45.43 188.38 C 57.87 156.79 76.59 127.60 99.96 102.98 C 103.59 98.94 107.36 94.99 111.47 91.45 C 142.27 62.68 179.97 41.20 220.51 29.67 C 235.80 25.59 251.24 22.21 266.99 20.52 C 300.66 16.73 335.10 19.18 368.03 27.09 Z" fill="#404d54" />
<path d="M 306.00 48.97 C 311.70 48.97 317.34 48.99 323.01 49.73 C 365.91 53.56 407.50 68.18 442.33 93.70 C 469.13 113.51 491.83 138.66 508.45 167.56 C 519.76 186.97 527.98 208.42 534.07 230.00 C 540.67 255.22 543.62 282.01 541.10 308.00 C 540.29 322.19 537.72 336.41 534.25 350.19 C 529.74 366.84 524.23 382.98 516.40 398.40 C 510.41 410.93 503.01 422.81 495.44 434.44 C 490.83 440.92 486.52 447.58 482.22 454.27 C 462.00 485.15 445.92 517.73 438.01 554.00 C 433.99 571.60 433.23 589.54 429.31 607.14 C 426.80 618.86 423.08 630.84 415.02 640.01 C 411.38 644.42 406.78 647.06 401.91 649.87 C 401.95 650.91 401.98 651.95 402.02 652.99 C 332.70 653.01 263.38 653.00 194.06 653.00 C 193.89 651.67 194.35 649.66 193.64 648.54 C 189.56 645.84 185.60 643.44 182.52 639.51 C 175.53 630.57 171.86 619.74 169.34 608.79 C 165.90 594.72 164.73 580.31 162.09 565.99 C 156.30 528.33 139.53 491.84 119.00 460.00 C 109.65 445.30 99.49 431.23 90.95 416.02 C 69.93 380.51 57.43 340.30 56.00 299.00 C 56.23 289.37 55.40 279.53 56.74 269.99 C 57.37 256.87 60.02 243.75 63.12 231.00 C 72.40 194.45 89.94 160.14 114.68 131.64 C 121.02 123.78 128.60 116.87 135.77 109.77 C 154.68 92.79 176.32 78.74 199.66 68.67 C 233.05 54.27 269.69 47.60 306.00 48.97 Z" fill="#ffffff" />
<path d="M 208.00 680.96 C 250.66 681.01 293.34 680.92 336.00 680.96 C 354.00 680.99 372.00 680.94 390.00 680.98 C 397.61 680.53 405.32 687.19 405.07 695.00 C 405.38 702.44 398.32 709.09 391.01 708.98 C 329.69 709.02 268.31 708.99 206.99 708.99 C 198.66 709.05 191.28 700.80 193.52 692.48 C 194.99 685.78 201.07 680.71 208.00 680.96 Z" fill="#ffffff" />
<path d="M 211.00 738.09 C 270.64 738.07 330.37 738.05 390.01 738.08 C 395.86 737.87 401.56 741.81 403.98 747.04 C 406.89 753.42 403.85 761.51 397.68 764.71 C 392.88 767.56 388.30 766.58 383.00 766.69 C 324.66 766.72 266.31 766.66 207.97 766.72 C 201.85 766.44 196.16 762.99 193.94 757.14 C 191.50 751.02 194.69 743.44 200.30 740.25 C 203.66 738.17 207.18 738.12 211.00 738.09 Z" fill="#ffffff" />
<path d="M 248.90 797.41 C 282.53 797.30 316.18 797.56 349.81 797.26 C 333.65 816.37 305.37 825.77 281.18 818.56 C 270.09 815.64 259.84 809.32 251.83 801.16 C 250.69 800.02 249.61 798.87 248.90 797.41 Z" fill="#ffffff" />
</svg>