<?xml version="1.0" encoding="UTF-8" standalone="no"?>
<svg
   version="1.1"
   viewBox="0 0 205 475"
   width="205.0pt"
   height="475.0pt"
   id="svg9"
   sodipodi:docname="loader_helix.svg"
   inkscape:version="1.4.2 (f4327f4, 2025-05-13)"
   xmlns:inkscape="http://www.inkscape.org/namespaces/inkscape"
   xmlns:sodipodi="http://sodipodi.sourceforge.net/DTD/sodipodi-0.dtd"
   xmlns="http://www.w3.org/2000/svg"
   xmlns:svg="http://www.w3.org/2000/svg">
  <defs
     id="defs9" />
  <sodipodi:namedview
     id="namedview9"
     pagecolor="#ffffff"
     bordercolor="#000000"
     borderopacity="0.25"
     inkscape:showpageshadow="2"
     inkscape:pageopacity="0.0"
     inkscape:pagecheckerboard="0"
     inkscape:deskcolor="#d1d1d1"
     inkscape:document-units="pt"
     inkscape:zoom="1.1611438"
     inkscape:cx="41.76916"
     inkscape:cy="307.45547"
     inkscape:window-width="2400"
     inkscape:window-height="1262"
     inkscape:window-x="-8"
     inkscape:window-y="474"
     inkscape:window-maximized="1"
     inkscape:current-layer="svg9" />
  <path
     id="path2"
     d="M 2.8505859 0 C 4.6905859 20.62 13.39 40.820723 25.5 57.490723 C 35.83 71.510723 49.429785 83.85998 61.779785 96.22998 C 67.949785 102.67998 74.530078 108.69953 80.830078 115.01953 C 64.490078 130.59953 48.740723 146.80975 32.740723 162.73975 C 17.460723 179.05975 6.9900195 200.04941 3.5200195 222.14941 C 2.0200195 230.88941 1.4195117 239.69023 2.7495117 248.49023 C 5.4595117 272.59023 16.160723 295.58977 32.740723 313.25977 C 48.740723 329.17977 64.490078 345.39998 80.830078 360.97998 C 76.100078 365.87998 70.959277 370.32928 66.259277 375.25928 C 54.909277 386.84928 42.759434 397.85039 32.169434 410.15039 C 16.369434 428.43039 5.7005273 450.92049 2.7905273 475.00049 L 33.430664 475.00049 C 36.650664 456.36049 46.119805 439.70029 59.299805 426.30029 C 67.329805 417.99029 75.63957 409.97957 83.80957 401.80957 C 90.38957 395.50957 96.549512 388.80992 103.24951 382.66992 C 106.30951 384.80992 108.86033 387.82016 111.59033 390.41016 C 120.66033 399.34016 129.62969 408.35934 138.67969 417.31934 C 142.82969 421.57934 147.20947 425.53953 150.95947 430.01953 C 159.80947 440.35953 167.34977 452.76979 170.75977 466.02979 C 171.55977 469.00979 171.91965 472.05049 172.88965 475.00049 L 202.91016 475.00049 C 200.52016 454.60049 192.88975 434.88957 180.73975 418.30957 C 176.78975 413.27957 172.72004 408.31947 168.29004 403.70947 C 153.97004 389.35947 139.3199 375.35035 124.8999 361.11035 C 126.8799 359.03035 128.88977 356.96953 131.00977 355.01953 C 141.29977 345.28953 151.15025 335.16002 161.26025 325.27002 C 169.56025 317.04002 177.86047 309.1702 184.23047 299.2002 C 195.27047 282.9702 202.20947 263.62953 203.45947 244.01953 C 204.60947 237.84953 203.28066 232.10973 202.93066 225.96973 C 199.79066 201.25973 188.19002 177.98047 170.77002 160.23047 C 155.57002 144.97047 140.2599 129.97063 124.8999 114.89063 C 134.1199 105.78063 143.43021 96.760703 152.72021 87.720703 C 160.45021 79.810703 168.38008 72.919883 175.33008 64.379883 C 188.22008 49.599883 197.01012 31.150508 201.12012 12.020508 C 202.06012 8.0505078 202.14059 3.97 203.10059 0 L 173.08008 0 C 172.02008 3.56 171.54979 7.230293 170.52979 10.800293 C 166.52979 25.530293 157.59018 39.149434 147.18018 50.169434 C 136.01018 61.339434 124.83984 72.499844 113.58984 83.589844 C 110.17984 86.859844 106.99951 90.519395 103.24951 93.379395 C 96.419512 86.989395 90.039805 80.170684 83.299805 73.700684 C 74.479805 64.840684 65.460586 56.220137 56.850586 47.140137 C 50.610586 40.040137 44.920215 32.670508 40.970215 24.020508 C 36.980215 16.440508 34.909922 8.33 33.169922 0 L 2.8505859 0 z M 103.25977 135.43066 C 106.56977 139.21066 110.10066 142.79031 113.68066 146.32031 C 121.12066 153.48031 128.15068 161.16994 135.95068 167.93994 C 114.00068 168.01994 92.040098 167.84051 70.100098 168.02051 C 73.620098 164.56051 76.900039 160.8798 80.540039 157.5498 C 88.270039 150.3198 95.459762 142.58066 103.25977 135.43066 z M 158.90039 194.56055 C 160.32039 194.51055 160.97945 195.14957 161.68945 196.30957 C 164.96945 201.46957 167.19982 206.96041 169.31982 212.67041 C 170.52982 216.43041 171.86984 219.95971 172.08984 223.94971 C 126.02984 223.95971 79.950371 224.10939 33.880371 223.87939 C 35.860371 213.98939 39.789922 204.58959 45.169922 196.07959 C 46.179922 194.13959 49.199746 194.72035 50.989746 194.61035 C 86.969746 194.52035 122.92039 194.52055 158.90039 194.56055 z M 57 252.01025 C 95.36 252.04025 133.72984 251.9698 172.08984 252.0498 C 171.91984 254.0798 171.64025 256.06025 171.01025 258.01025 C 168.91025 265.07025 166.17996 272.07068 162.45996 278.45068 C 161.46996 279.91068 160.99014 281.55043 158.89014 281.44043 C 122.92014 281.48043 86.969746 281.48063 50.989746 281.39063 C 49.199746 281.28062 46.179922 281.85992 45.169922 279.91992 C 39.789922 271.40992 35.870371 262.01037 33.880371 252.13037 C 41.580371 251.93037 49.29 252.04025 57 252.01025 z M 70.100098 307.98047 C 92.040098 308.16047 114.00068 307.97957 135.95068 308.05957 C 132.65068 310.72957 129.74949 313.75998 126.72949 316.72998 C 118.90949 324.66998 110.65977 332.24031 103.25977 340.57031 C 95.459762 333.42031 88.270039 325.67971 80.540039 318.44971 C 76.900039 315.11971 73.620098 311.44047 70.100098 307.98047 z "
     style="fill:#404d54;fill-opacity:1" />
</svg>
