<?xml version="1.0" encoding="UTF-8" standalone="no"?>
<svg
   version="1.1"
   viewBox="0 0 598 872"
   width="598.0pt"
   height="872.0pt"
   id="svg6"
   sodipodi:docname="loader_bulb.svg"
   inkscape:version="1.4.2 (f4327f4, 2025-05-13)"
   xmlns:inkscape="http://www.inkscape.org/namespaces/inkscape"
   xmlns:sodipodi="http://sodipodi.sourceforge.net/DTD/sodipodi-0.dtd"
   xmlns="http://www.w3.org/2000/svg"
   xmlns:svg="http://www.w3.org/2000/svg">
  <defs
     id="defs6" />
  <sodipodi:namedview
     id="namedview6"
     pagecolor="#ffffff"
     bordercolor="#000000"
     borderopacity="0.25"
     inkscape:showpageshadow="2"
     inkscape:pageopacity="0.0"
     inkscape:pagecheckerboard="0"
     inkscape:deskcolor="#d1d1d1"
     inkscape:document-units="pt"
     inkscape:zoom="0.89449541"
     inkscape:cx="398.54872"
     inkscape:cy="581.33333"
     inkscape:window-width="2400"
     inkscape:window-height="1262"
     inkscape:window-x="-8"
     inkscape:window-y="474"
     inkscape:window-maximized="1"
     inkscape:current-layer="svg6" />
  <path
     id="path2"
     d="M 292.35059 18.834961 C 283.87246 19.014648 275.40725 19.572031 266.98975 20.519531 C 251.23975 22.209531 235.80025 25.59041 220.51025 29.67041 C 179.97025 41.20041 142.27021 62.680195 111.47021 91.450195 C 107.36021 94.990195 103.58947 98.93998 99.959473 102.97998 C 76.589473 127.59998 57.870664 156.79037 45.430664 188.38037 C 34.720664 215.77037 28.309688 244.61049 26.929688 274.00049 C 25.829688 299.25049 27.039355 324.08961 32.339355 348.84961 C 35.329355 361.00961 38.239746 373.46016 42.739746 385.16016 C 48.599746 400.65016 55.779609 415.63984 63.849609 430.08984 C 79.419609 457.22984 97.830625 481.81936 111.89063 510.08936 C 121.28063 529.44936 128.70967 549.54986 132.15967 570.85986 C 134.14967 581.49986 135.43936 592.22963 137.33936 602.86963 C 141.20936 620.50963 144.87008 637.68047 155.08008 652.98047 C 159.42008 660.03047 165.58951 666.08996 172.24951 670.95996 C 160.60951 687.12996 161.15041 710.6407 175.17041 725.2207 C 170.22041 731.0307 166.21963 737.19986 164.86963 744.85986 C 162.64963 755.22986 164.25941 766.20938 169.64941 775.35938 C 174.78941 783.90938 182.44053 790.83998 191.79053 794.47998 C 199.20053 797.68998 207.49018 798.12986 215.43018 797.35986 C 221.51018 810.84986 231.01998 822.29957 242.47998 831.55957 C 258.66998 844.18957 279.42 851.5802 300 851.2002 C 312.63 851.3302 325.40018 847.96994 336.93018 842.93994 C 356.83018 833.36994 374.27947 817.86023 383.45947 797.49023 C 389.77947 797.41023 395.72982 797.7393 401.81982 795.7793 C 418.09982 791.1793 431.23016 776.78979 433.91016 760.02979 C 435.19016 753.00979 434.34006 745.72928 432.06006 739.00928 C 430.13006 733.63928 426.75953 729.5802 423.26953 725.2002 C 437.05953 710.9402 438.24072 686.52008 425.74072 671.08008 C 429.83072 668.04008 433.7407 664.94996 437.2207 661.20996 C 447.4707 649.33996 453.24029 635.06977 457.05029 620.00977 C 461.60029 602.98977 462.74049 585.79979 466.00049 568.02979 C 470.59049 541.30979 481.32049 516.04072 494.50049 492.49072 C 506.23049 472.13072 519.55977 452.74072 531.50977 432.49072 C 554.14977 394.62072 568.30004 351.09049 571.04004 307.00049 C 571.55004 293.30049 571.77064 279.68977 570.66064 266.00977 C 568.54064 239.83977 562.29045 213.89996 552.71045 189.45996 C 540.43045 157.10996 521.61951 127.30049 497.74951 102.25049 C 470.52951 73.550488 436.78936 51.25041 399.83936 37.17041 C 389.52936 33.01041 378.73027 30.029355 368.03027 27.089355 C 343.33277 21.156855 317.78496 18.295898 292.35059 18.834961 z M 306 48.969727 C 311.7 48.969727 317.33977 48.98998 323.00977 49.72998 C 365.90977 53.55998 407.50008 68.180195 442.33008 93.700195 C 469.13008 113.5102 491.8302 138.66055 508.4502 167.56055 C 519.7602 186.97055 527.98031 208.41951 534.07031 229.99951 C 540.67031 255.21951 543.6201 282.00951 541.1001 307.99951 C 540.2901 322.18951 537.72049 336.40994 534.25049 350.18994 C 529.74049 366.83994 524.2299 382.97941 516.3999 398.39941 C 510.4099 410.92941 503.00945 422.81043 495.43945 434.44043 C 490.82945 440.92043 486.5207 447.58002 482.2207 454.27002 C 462.0007 485.15002 445.92025 517.72951 438.01025 553.99951 C 433.99025 571.59951 433.23055 589.53965 429.31055 607.13965 C 426.80055 618.85965 423.07953 630.83928 415.01953 640.00928 C 411.37953 644.41928 406.78064 647.06061 401.91064 649.87061 C 401.95064 650.91061 401.98051 651.95072 402.02051 652.99072 C 332.70051 653.01072 263.37957 652.99951 194.05957 652.99951 C 193.88957 651.66951 194.35062 649.66053 193.64063 648.54053 C 189.56063 645.84053 185.59953 643.43977 182.51953 639.50977 C 175.52953 630.56977 171.86033 619.74053 169.34033 608.79053 C 165.90033 594.72053 164.72936 580.31072 162.08936 565.99072 C 156.29936 528.33072 139.52951 491.84049 118.99951 460.00049 C 109.64951 445.30049 99.490684 431.23002 90.950684 416.02002 C 69.930684 380.51002 57.429512 340.29951 55.999512 298.99951 C 56.229512 289.36951 55.400723 279.52975 56.740723 269.98975 C 57.370723 256.86975 60.020117 243.75 63.120117 231 C 72.400117 194.45 89.939686 160.13965 114.67969 131.63965 C 121.01969 123.77965 128.60051 116.86953 135.77051 109.76953 C 154.68051 92.789532 176.31967 78.74041 199.65967 68.67041 C 233.04967 54.27041 269.69 47.599727 306 48.969727 z M 208.00049 680.96045 C 250.66049 681.01045 293.34 680.92045 336 680.96045 C 354 680.99045 372 680.93949 390 680.97949 C 397.61 680.52949 405.32031 687.18951 405.07031 694.99951 C 405.38031 702.43951 398.31928 709.08998 391.00928 708.97998 C 329.68928 709.01998 268.30975 708.99023 206.98975 708.99023 C 198.65975 709.05023 191.28051 700.79998 193.52051 692.47998 C 194.99051 685.77998 201.07049 680.71045 208.00049 680.96045 z M 390.01025 738.08057 C 395.86025 737.87057 401.56047 741.80955 403.98047 747.03955 C 406.89047 753.41955 403.85018 761.50996 397.68018 764.70996 C 392.88018 767.55996 388.29951 766.58043 382.99951 766.69043 C 324.65951 766.72043 266.30973 766.65973 207.96973 766.71973 C 201.84973 766.43973 196.15945 762.98965 193.93945 757.13965 C 191.49945 751.01965 194.6898 743.44 200.2998 740.25 C 203.6598 738.17 207.18049 738.11936 211.00049 738.08936 C 270.64049 738.06936 330.37025 738.05057 390.01025 738.08057 z M 349.81055 797.26025 C 333.65055 816.37025 305.36969 825.77055 281.17969 818.56055 C 270.08969 815.64055 259.84008 809.31967 251.83008 801.15967 C 250.69008 800.01967 249.61039 798.86967 248.90039 797.40967 C 282.53039 797.29967 316.18055 797.56025 349.81055 797.26025 z "
     style="fill:#404d54;fill-opacity:1" />
</svg>
