<?xml version="1.0" encoding="UTF-8" standalone="no"?>
<svg
   version="1.1"
   viewBox="0 0 828 269"
   width="828.0pt"
   height="269.0pt"
   id="svg28"
   sodipodi:docname="logo_helena.svg"
   inkscape:version="1.4.2 (f4327f4, 2025-05-13)"
   xmlns:inkscape="http://www.inkscape.org/namespaces/inkscape"
   xmlns:sodipodi="http://sodipodi.sourceforge.net/DTD/sodipodi-0.dtd"
   xmlns="http://www.w3.org/2000/svg"
   xmlns:svg="http://www.w3.org/2000/svg">
  <defs
     id="defs28" />
  <sodipodi:namedview
     id="namedview28"
     pagecolor="#ffffff"
     bordercolor="#000000"
     borderopacity="0.25"
     inkscape:showpageshadow="2"
     inkscape:pageopacity="0.0"
     inkscape:pagecheckerboard="0"
     inkscape:deskcolor="#d1d1d1"
     inkscape:document-units="pt"
     inkscape:zoom="2.1050725"
     inkscape:cx="552.23752"
     inkscape:cy="179.56627"
     inkscape:window-width="2400"
     inkscape:window-height="1262"
     inkscape:window-x="-8"
     inkscape:window-y="474"
     inkscape:window-maximized="1"
     inkscape:current-layer="svg28" />
  <path
     d="M 41.99 23.75 C 49.67 23.97 57.36 23.76 65.04 23.87 C 64.70 40.25 65.14 56.65 64.96 73.04 C 83.30 72.92 101.63 73.07 119.97 72.97 C 119.99 56.61 120.08 40.25 119.91 23.89 C 127.61 23.83 135.31 23.94 143.00 23.83 C 143.00 63.89 143.00 103.95 143.00 144.01 C 135.31 144.00 127.62 144.00 119.93 144.01 C 120.06 126.75 119.99 109.48 119.97 92.22 C 101.63 92.27 83.24 92.49 64.89 92.09 C 65.17 109.39 64.82 126.70 65.01 144.00 C 57.34 144.02 49.67 143.99 41.99 144.00 C 42.00 103.92 42.00 63.84 41.99 23.75 Z"
     fill="#4c4f51"
     id="path2" />
  <path
     d="M 187.00 23.95 C 214.15 23.76 241.32 23.89 268.48 23.89 C 268.07 29.92 268.35 35.95 268.20 42.01 C 248.81 42.03 229.41 41.97 210.02 42.03 C 209.99 52.68 210.03 63.33 210.01 73.98 C 227.34 74.00 244.67 74.01 262.01 73.98 C 262.06 80.00 261.89 86.02 262.00 92.04 C 244.67 92.10 227.33 92.08 210.00 92.04 C 210.04 103.00 210.03 113.96 210.01 124.92 C 229.45 124.66 248.90 124.92 268.34 124.79 C 268.48 131.22 267.96 137.68 268.69 144.01 C 241.45 144.00 214.22 144.00 186.99 144.01 C 187.01 103.99 187.00 63.97 187.00 23.95 Z"
     fill="#4c4f51"
     id="path3" />
  <path
     d="M 308.99 23.63 C 316.63 24.03 324.30 23.76 331.95 23.87 C 331.87 25.58 331.80 27.28 331.79 29.00 C 331.98 60.87 331.91 92.79 331.98 124.67 C 350.10 124.54 368.25 124.30 386.36 124.69 C 386.30 131.13 386.42 137.57 386.35 144.00 C 360.56 144.02 334.78 143.97 309.00 144.03 C 308.99 103.89 309.01 63.76 308.99 23.63 Z"
     fill="#4c4f51"
     id="path4" />
  <path
     d="M 421.85 23.62 C 427.89 24.03 433.90 23.82 440.00 23.86 C 460.70 23.84 481.39 23.91 502.09 23.82 C 501.76 29.87 501.91 35.94 501.91 42.00 C 482.64 42.05 463.38 41.99 444.11 42.02 C 444.22 52.67 444.27 63.35 444.03 74.00 C 461.02 73.98 478.01 74.03 495.01 73.97 C 495.00 80.00 495.00 86.02 495.01 92.04 C 478.05 92.13 461.08 92.12 444.12 92.02 C 444.39 102.96 444.14 113.91 444.16 124.85 C 463.45 124.75 482.73 124.86 502.01 124.79 C 502.00 131.20 502.00 137.60 502.02 144.00 C 475.22 144.01 448.43 143.98 421.64 144.03 C 421.47 110.02 421.65 76.01 421.53 42.00 C 421.53 35.87 421.59 29.74 421.85 23.62 Z"
     fill="#4c4f51"
     id="path5" />
  <path
     d="M 542.00 23.77 C 550.29 23.95 558.60 23.86 566.90 23.85 C 585.33 52.72 604.28 81.49 622.89 110.27 C 622.88 81.38 622.90 52.59 622.87 23.70 C 630.26 23.99 637.67 23.80 645.07 23.87 C 644.92 63.91 645.02 103.96 645.02 144.00 C 636.96 144.02 628.90 143.96 620.84 144.05 C 609.84 128.02 599.61 111.46 588.63 95.42 C 581.64 84.41 574.27 73.67 567.49 62.53 C 566.53 60.75 565.48 59.09 564.13 57.58 C 564.50 64.39 564.40 71.19 564.40 78.00 C 564.46 100.00 564.27 122.01 564.44 144.01 C 556.96 144.00 549.48 144.00 541.99 144.01 C 542.00 103.93 542.00 63.85 542.00 23.77 Z"
     fill="#4c4f51"
     id="path6" />
  <path
     d="M 724.18 23.97 C 731.69 23.61 739.29 23.77 746.81 23.98 C 747.12 24.79 747.44 25.59 747.75 26.40 C 755.36 46.06 763.08 65.73 770.76 85.36 C 773.61 93.30 777.05 101.01 780.10 108.88 C 784.74 120.59 789.10 132.41 794.02 144.01 C 786.13 143.97 778.24 144.04 770.35 143.99 C 768.81 138.00 766.29 132.66 764.16 126.93 C 762.96 123.46 761.64 120.04 760.27 116.64 C 759.80 115.42 759.31 114.21 758.81 113.00 C 744.20 113.00 729.60 113.00 714.99 113.00 C 713.77 113.20 711.66 112.47 711.36 114.17 C 710.31 117.72 709.06 121.15 707.72 124.59 C 705.69 131.16 702.76 137.41 700.81 144.00 C 693.20 144.03 685.58 143.94 677.97 144.06 C 688.25 116.72 698.97 89.63 709.21 62.32 C 714.15 49.58 718.72 36.46 724.18 23.97 Z"
     fill="#4c4f51"
     id="path7" />
  <path
     d="M 735.44 49.65 C 736.59 53.34 737.95 56.95 739.25 60.58 C 741.25 65.92 743.46 71.17 745.25 76.59 C 747.52 82.72 749.93 88.80 752.21 94.92 C 740.99 94.74 729.76 94.82 718.54 94.97 C 719.36 91.27 720.82 87.83 722.30 84.36 C 725.78 75.37 729.02 66.30 732.30 57.24 C 733.26 54.66 733.65 51.70 735.44 49.65 Z"
     fill="#ffffff"
     id="path8" />
  <path
     d="M 146.46 194.43 C 154.49 192.68 164.08 195.14 169.34 201.72 C 174.80 208.33 176.30 217.85 174.16 226.03 C 173.02 231.56 169.85 236.92 165.00 239.95 C 156.19 245.87 143.83 245.18 135.87 238.14 C 126.08 228.56 125.63 211.75 134.16 201.23 C 137.42 197.55 141.75 195.54 146.46 194.43 Z"
     fill="#4c4f51"
     id="path9" />
  <path
     d="M 363.46 194.48 C 371.75 192.77 380.97 194.83 386.79 201.25 C 390.67 205.91 392.28 212.05 392.59 218.00 C 392.42 223.62 392.01 228.87 388.79 233.68 C 383.24 243.00 370.47 246.04 360.67 242.35 C 351.83 239.50 346.77 230.91 345.98 222.02 C 345.80 217.37 345.81 212.91 347.65 208.56 C 350.25 201.46 356.14 196.29 363.46 194.48 Z"
     fill="#4c4f51"
     id="path10" />
  <path
     d="M 719.20 194.31 C 725.31 195.53 731.06 199.63 733.45 205.48 C 734.01 207.01 735.33 209.13 734.80 210.75 C 732.25 211.22 729.60 211.23 727.03 210.98 C 724.90 208.08 724.28 205.00 720.88 203.13 C 717.63 201.58 713.53 200.31 710.07 201.89 C 705.76 203.15 702.17 206.32 700.57 210.54 C 699.06 214.91 698.50 219.50 699.68 224.03 C 700.88 228.68 703.40 233.07 707.98 235.06 C 714.84 237.67 723.99 235.68 726.46 227.96 C 729.32 227.74 732.20 227.60 735.07 227.53 C 735.02 230.51 733.39 233.26 731.78 235.69 C 726.04 243.84 713.82 246.04 704.99 242.09 C 699.46 240.17 695.53 235.88 693.22 230.61 C 689.49 221.73 690.16 210.75 695.77 202.80 C 701.01 195.53 710.63 192.80 719.20 194.31 Z"
     fill="#4c4f51"
     id="path11" />
  <path
     d="M 783.74 198.21 C 786.87 200.83 787.58 205.21 788.22 209.02 C 785.53 209.01 782.84 209.01 780.16 208.99 C 780.05 208.14 779.94 207.30 779.84 206.46 C 778.67 205.22 777.52 203.86 776.19 202.80 C 772.55 200.47 768.33 200.59 764.63 202.76 C 760.86 204.46 760.38 210.87 764.41 212.66 C 769.68 214.63 775.35 215.20 780.66 217.15 C 784.20 219.23 787.33 221.54 788.32 225.77 C 789.49 228.95 788.39 231.58 787.89 234.73 C 786.48 237.39 784.84 239.73 782.17 241.25 C 774.70 245.25 765.73 244.67 758.46 240.52 C 754.25 238.22 752.16 232.53 751.81 227.99 C 754.47 227.95 757.12 227.92 759.78 227.93 C 760.64 232.05 762.05 234.39 766.20 235.71 C 769.98 236.42 775.88 236.89 778.76 233.77 C 781.43 231.14 780.85 226.24 777.23 224.81 C 771.66 222.67 763.98 222.20 758.38 218.63 C 756.37 217.42 755.37 215.47 754.03 213.62 C 753.52 210.04 753.50 206.92 754.02 203.34 C 755.94 200.06 758.07 197.20 761.69 195.68 C 768.82 192.85 777.66 193.13 783.74 198.21 Z"
     fill="#4c4f51"
     id="path12" />
  <path
     d="M 41.99 194.92 C 49.33 195.06 56.69 194.80 64.02 195.02 C 69.12 195.60 72.54 198.96 74.99 203.22 C 76.13 209.17 75.76 215.97 68.93 218.06 C 73.59 220.09 74.99 221.68 77.00 226.27 C 76.98 229.52 77.69 233.05 75.97 235.95 C 74.12 240.01 69.16 242.20 65.02 242.95 C 57.36 243.11 49.67 242.94 41.99 243.00 C 42.00 226.98 42.00 210.95 41.99 194.92 Z"
     fill="#4c4f51"
     id="path13" />
  <path
     d="M 97.97 194.91 C 100.65 194.95 103.33 194.97 106.01 194.97 C 105.99 210.98 106.00 226.99 106.00 243.01 C 103.31 243.01 100.61 243.01 97.91 243.00 C 98.00 226.97 97.92 210.94 97.97 194.91 Z"
     fill="#4c4f51"
     id="path14" />
  <path
     d="M 197.98 194.93 C 200.76 194.94 203.54 194.95 206.32 194.96 C 205.82 210.96 206.25 227.00 206.09 243.00 C 203.38 243.01 200.68 243.01 197.98 243.01 C 198.02 226.98 197.97 210.95 197.98 194.93 Z"
     fill="#4c4f51"
     id="path15" />
  <path
     d="M 231.91 194.96 C 234.86 194.94 237.80 194.94 240.75 194.99 C 247.06 204.48 253.25 214.04 259.32 223.68 C 260.12 224.99 261.00 226.59 261.04 228.13 C 259.85 227.70 259.25 226.58 258.43 225.66 C 259.10 226.94 259.77 228.23 260.45 229.51 C 261.27 229.26 262.09 229.01 262.91 228.76 C 262.21 217.52 262.56 206.29 262.14 195.04 C 265.10 194.95 268.05 194.95 271.00 194.97 C 271.00 210.98 271.00 226.99 271.00 243.00 C 268.05 243.00 265.11 243.01 262.16 243.01 C 254.79 231.59 247.70 219.93 240.09 208.69 C 239.95 220.13 240.00 231.57 240.03 243.01 C 237.34 243.01 234.66 243.01 231.97 243.00 C 232.03 226.99 231.73 210.97 231.91 194.96 Z"
     fill="#4c4f51"
     id="path16" />
  <path
     d="M 296.99 194.96 C 308.00 194.97 319.01 194.94 330.02 194.94 C 330.01 197.30 330.00 199.66 330.00 202.02 C 321.68 202.17 313.36 201.98 305.04 202.03 C 305.13 206.67 305.18 211.31 305.06 215.95 C 312.04 216.03 319.03 215.99 326.01 215.99 C 326.01 218.34 326.00 220.68 326.01 223.02 C 319.02 223.00 312.04 223.01 305.06 223.00 C 305.16 229.67 305.13 236.34 305.05 243.01 C 302.37 243.01 299.68 243.01 297.00 243.00 C 297.00 226.99 297.00 210.98 296.99 194.96 Z"
     fill="#4c4f51"
     id="path17" />
  <path
     d="M 416.99 194.98 C 423.67 195.00 430.37 194.89 437.05 195.01 C 442.04 195.68 447.98 198.17 449.58 203.44 C 450.86 207.81 451.45 212.21 449.39 216.46 C 447.71 220.24 444.36 221.94 440.76 223.50 C 445.50 229.84 449.85 236.47 454.29 243.02 C 450.88 242.99 447.47 243.00 444.06 243.04 C 440.16 236.91 436.28 230.63 431.66 225.00 C 429.45 225.02 427.25 225.02 425.04 225.01 C 425.05 231.01 425.06 237.01 425.01 243.01 C 422.33 243.01 419.66 243.00 416.99 243.00 C 417.01 227.00 416.99 210.99 416.99 194.98 Z"
     fill="#4c4f51"
     id="path18" />
  <path
     d="M 475.71 195.00 C 479.32 194.95 482.94 194.94 486.55 195.00 C 490.06 202.28 494.33 209.10 498.13 216.21 C 502.19 209.23 505.85 201.89 510.09 195.05 C 513.61 194.78 517.18 194.95 520.70 195.01 C 520.77 211.00 520.71 227.00 520.99 243.00 C 518.32 243.01 515.64 243.01 512.96 243.01 C 512.80 230.57 512.94 218.13 512.86 205.69 C 510.08 209.47 508.37 213.93 505.84 217.90 C 503.97 220.81 502.62 224.02 500.70 226.88 C 499.44 227.46 497.83 227.37 496.49 227.17 C 495.43 226.42 494.73 225.08 494.01 224.02 C 490.42 218.03 486.89 212.01 483.38 205.97 C 484.09 218.28 483.37 230.70 483.69 243.03 C 481.03 243.01 478.37 243.00 475.70 243.00 C 475.78 227.00 475.75 211.00 475.71 195.00 Z"
     fill="#4c4f51"
     id="path19" />
  <path
     d="M 559.05 195.03 C 562.26 194.76 565.52 194.93 568.74 194.98 C 571.46 202.88 574.64 210.66 577.73 218.43 C 580.82 226.66 583.88 234.89 587.26 243.00 C 584.22 243.01 581.18 243.01 578.14 243.00 C 577.22 240.20 576.26 237.41 575.23 234.65 C 574.71 233.11 574.18 231.56 573.67 230.01 C 567.26 230.01 560.86 229.95 554.45 230.06 C 553.07 234.42 551.42 238.72 549.81 243.00 C 546.88 243.00 543.95 243.00 541.03 243.02 C 543.04 238.58 544.70 233.95 546.23 229.32 C 549.89 219.89 553.15 210.31 556.73 200.84 C 557.49 198.99 557.81 196.60 559.05 195.03 Z"
     fill="#4c4f51"
     id="path20" />
  <path
     d="M 597.35 194.96 C 610.72 194.98 624.10 194.88 637.47 195.01 C 637.40 197.41 637.33 199.82 637.22 202.22 C 632.20 202.10 627.17 202.09 622.15 202.21 C 621.97 215.81 622.01 229.41 622.05 243.01 C 619.34 243.00 616.63 243.01 613.93 243.02 C 614.04 229.38 613.98 215.73 613.91 202.09 C 608.60 202.51 602.65 201.39 597.60 203.14 C 597.41 200.41 597.32 197.70 597.35 194.96 Z"
     fill="#4c4f51"
     id="path21" />
  <path
     d="M 658.99 194.95 C 661.67 194.97 664.34 194.99 667.01 194.99 C 667.00 210.99 666.99 227.00 667.01 243.00 C 664.34 243.01 661.67 243.01 659.00 243.01 C 658.95 226.99 658.99 210.97 658.99 194.95 Z"
     fill="#4c4f51"
     id="path22" />
  <path
     d="M 149.22 201.28 C 153.66 200.45 159.97 202.61 162.71 206.34 C 168.36 213.86 168.30 224.91 162.14 232.11 C 156.56 237.81 146.56 237.66 140.97 232.04 C 134.84 225.33 134.50 214.15 139.85 206.89 C 142.15 203.74 145.50 202.13 149.22 201.28 Z"
     fill="#ffffff"
     id="path23" />
  <path
     d="M 50.01 202.01 C 54.29 202.09 58.63 201.81 62.90 202.19 C 64.45 202.76 65.73 204.25 66.99 205.30 C 67.08 207.49 67.13 209.69 67.04 211.88 C 65.50 212.94 63.76 214.68 61.85 214.85 C 57.94 215.15 53.97 214.94 50.04 214.98 C 49.99 210.66 50.00 206.33 50.01 202.01 Z"
     fill="#ffffff"
     id="path24" />
  <path
     d="M 363.50 202.38 C 366.69 201.13 369.79 200.61 373.11 201.77 C 378.51 203.01 381.79 207.33 383.63 212.29 C 385.00 218.69 384.98 225.55 380.84 230.96 C 375.26 238.27 362.81 237.84 357.42 230.55 C 353.21 223.95 352.99 215.48 356.43 208.50 C 357.91 205.62 360.51 203.54 363.50 202.38 Z"
     fill="#ffffff"
     id="path25" />
  <path
     d="M 425.00 202.01 C 429.67 202.03 434.15 201.65 438.67 203.13 C 440.09 204.56 441.98 205.73 441.98 207.96 C 442.06 210.70 442.56 213.27 440.20 215.22 C 436.03 219.31 430.36 217.64 425.03 217.97 C 424.99 212.65 425.01 207.33 425.00 202.01 Z"
     fill="#ffffff"
     id="path26" />
  <path
     d="M 563.57 203.70 C 565.50 207.09 566.16 210.70 567.72 214.34 C 568.86 216.99 569.82 219.68 570.34 222.53 C 565.82 222.21 561.31 222.28 556.79 222.48 C 559.30 216.34 561.72 210.08 563.57 203.70 Z"
     fill="#ffffff"
     id="path27" />
  <path
     d="M 50.06 222.04 C 55.28 222.36 62.54 220.76 66.79 224.23 C 69.97 226.77 69.20 230.47 67.79 233.76 C 62.65 237.31 56.29 235.55 50.09 235.98 C 50.10 231.33 50.06 226.69 50.06 222.04 Z"
     fill="#ffffff"
     id="path28" />
</svg>
