<?xml version="1.0" encoding="UTF-8" standalone="no"?>
<svg
   version="1.1"
   viewBox="0 0 828 269"
   width="828.0pt"
   height="269.0pt"
   id="svg28"
   sodipodi:docname="logo_helena.svg"
   inkscape:version="1.4.2 (f4327f4, 2025-05-13)"
   xmlns:inkscape="http://www.inkscape.org/namespaces/inkscape"
   xmlns:sodipodi="http://sodipodi.sourceforge.net/DTD/sodipodi-0.dtd"
   xmlns="http://www.w3.org/2000/svg"
   xmlns:svg="http://www.w3.org/2000/svg">
  <defs
     id="defs28" />
  <sodipodi:namedview
     id="namedview28"
     pagecolor="#ffffff"
     bordercolor="#000000"
     borderopacity="0.25"
     inkscape:showpageshadow="2"
     inkscape:pageopacity="0.0"
     inkscape:pagecheckerboard="0"
     inkscape:deskcolor="#d1d1d1"
     inkscape:document-units="pt"
     inkscape:zoom="0.52626813"
     inkscape:cx="111.16007"
     inkscape:cy="323.02925"
     inkscape:window-width="2400"
     inkscape:window-height="1262"
     inkscape:window-x="-8"
     inkscape:window-y="474"
     inkscape:window-maximized="1"
     inkscape:current-layer="svg28" />
  <path
     d="M 41.99 23.75 C 49.67 23.97 57.36 23.76 65.04 23.87 C 64.70 40.25 65.14 56.65 64.96 73.04 C 83.30 72.92 101.63 73.07 119.97 72.97 C 119.99 56.61 120.08 40.25 119.91 23.89 C 127.61 23.83 135.31 23.94 143.00 23.83 C 143.00 63.89 143.00 103.95 143.00 144.01 C 135.31 144.00 127.62 144.00 119.93 144.01 C 120.06 126.75 119.99 109.48 119.97 92.22 C 101.63 92.27 83.24 92.49 64.89 92.09 C 65.17 109.39 64.82 126.70 65.01 144.00 C 57.34 144.02 49.67 143.99 41.99 144.00 C 42.00 103.92 42.00 63.84 41.99 23.75 Z"
     fill="#4c4f51"
     id="path2" />
  <path
     d="m 187,23.95 c 27.15,-0.19 54.54268,-0.104535 81.70268,-0.104535 L 268.66762,42.043401 210.02,42.03 210.01,73.98 h 52 L 262,92.04 h -52 c 0.04,10.96 0.03,21.92 0.01,32.88 l 58.64175,0.27082 L 268.69,144.01 C 241.45,144 214.22,144 186.99,144.01 187.01,103.99 187,63.97 187,23.95 Z"
     fill="#4c4f51"
     id="path3"
     sodipodi:nodetypes="ccccccccccccc" />
  <path
     d="m 308.99,23.63 22.96,0.24 0.03,100.8 54.38,0.02 -0.01,19.31 -77.35,0.03 z"
     fill="#4c4f51"
     id="path4"
     sodipodi:nodetypes="ccccccc" />
  <path
     d="m 421.62732,23.62 80.49417,0.01105 L 501.91,42 444.11,42.02 444.03,74 495.01,73.97 C 495,80 495,86.02 495.01,92.04 l -50.89,-0.02 0.04,32.83 57.85,-0.06 C 502,131.2 502,137.6 502.02,144 c -26.8,0.01 -53.59,-0.02 -80.38,0.03 z"
     fill="#4c4f51"
     id="path5"
     sodipodi:nodetypes="ccccccccccccc" />
  <path
     d="m 542,23.77 24.9,0.08 55.99,86.42 -0.02,-86.57 22.2,0.17 -0.05,120.13 -24.18,0.05 -56.71,-86.47 0.31,86.43 h -22.45 z"
     fill="#4c4f51"
     id="path6"
     sodipodi:nodetypes="ccccccccccc" />
  <path
     d="m 724.18,23.97 22.63,0.01 47.21,120.03 -23.67,-0.02 L 758.81,113 711.58895,112.88978 700.81,144 l -22.84,0.06 z"
     fill="#4c4f51"
     id="path7"
     sodipodi:nodetypes="ccccccccc" />
  <path
     d="M 735.44 49.65 C 736.59 53.34 737.95 56.95 739.25 60.58 C 741.25 65.92 743.46 71.17 745.25 76.59 C 747.52 82.72 749.93 88.80 752.21 94.92 C 740.99 94.74 729.76 94.82 718.54 94.97 C 719.36 91.27 720.82 87.83 722.30 84.36 C 725.78 75.37 729.02 66.30 732.30 57.24 C 733.26 54.66 733.65 51.70 735.44 49.65 Z"
     fill="#ffffff"
     id="path8" />
  <path
     id="path9"
     d="M 152.68359 193.90576 C 150.57313 193.81842 148.46697 193.99268 146.45947 194.43018 C 141.74947 195.54018 137.42064 197.54998 134.16064 201.22998 C 125.63064 211.74998 126.08012 228.55965 135.87012 238.13965 C 143.83012 245.17965 156.19 245.8702 165 239.9502 C 169.85 236.9202 173.01967 231.55979 174.15967 226.02979 C 176.29967 217.84979 174.80033 208.3307 169.34033 201.7207 C 165.39533 196.7857 159.015 194.16779 152.68359 193.90576 z M 150.9624 201.10547 C 155.18209 201.01387 160.31295 203.07561 162.71045 206.33936 C 168.36045 213.85936 168.30063 224.91035 162.14063 232.11035 C 156.56063 237.81035 146.5607 237.66004 140.9707 232.04004 C 134.8407 225.33004 134.5001 214.15014 139.8501 206.89014 C 142.1501 203.74014 145.5007 202.12979 149.2207 201.27979 C 149.7757 201.17604 150.35959 201.11855 150.9624 201.10547 z "
     style="fill:#4c4f51;fill-opacity:1" />
  <path
     id="path10"
     d="M 369.78369 193.91309 C 367.6626 193.86012 365.53246 194.05248 363.45996 194.47998 C 356.13996 196.28998 350.2499 201.46006 347.6499 208.56006 C 345.8099 212.91006 345.79998 217.37051 345.97998 222.02051 C 346.76998 230.91051 351.82943 239.49961 360.66943 242.34961 C 370.46943 246.03961 383.24004 243.00066 388.79004 233.68066 C 392.01004 228.87066 392.41984 223.61951 392.58984 217.99951 C 392.27984 212.04951 390.67053 205.91049 386.79053 201.25049 C 382.42553 196.43549 376.14697 194.07199 369.78369 193.91309 z M 369.45117 201.12305 C 370.65064 201.13564 371.86535 201.33551 373.11035 201.77051 C 378.51035 203.01051 381.78939 207.32955 383.62939 212.28955 C 384.99939 218.68955 384.98033 225.55045 380.84033 230.96045 C 375.26033 238.27045 362.81041 237.84029 357.42041 230.55029 C 353.21041 223.95029 352.99018 215.48 356.43018 208.5 C 357.91018 205.62 360.50951 203.53988 363.49951 202.37988 C 365.49326 201.59863 367.45205 201.10205 369.45117 201.12305 z "
     style="fill:#4c4f51;fill-opacity:1" />
  <path
     d="M 719.20 194.31 C 725.31 195.53 731.06 199.63 733.45 205.48 C 734.01 207.01 735.33 209.13 734.80 210.75 C 732.25 211.22 729.60 211.23 727.03 210.98 C 724.90 208.08 724.28 205.00 720.88 203.13 C 717.63 201.58 713.53 200.31 710.07 201.89 C 705.76 203.15 702.17 206.32 700.57 210.54 C 699.06 214.91 698.50 219.50 699.68 224.03 C 700.88 228.68 703.40 233.07 707.98 235.06 C 714.84 237.67 723.99 235.68 726.46 227.96 C 729.32 227.74 732.20 227.60 735.07 227.53 C 735.02 230.51 733.39 233.26 731.78 235.69 C 726.04 243.84 713.82 246.04 704.99 242.09 C 699.46 240.17 695.53 235.88 693.22 230.61 C 689.49 221.73 690.16 210.75 695.77 202.80 C 701.01 195.53 710.63 192.80 719.20 194.31 Z"
     fill="#4c4f51"
     id="path11" />
  <path
     d="M 783.74 198.21 C 786.87 200.83 787.58 205.21 788.22 209.02 C 785.53 209.01 782.84 209.01 780.16 208.99 C 780.05 208.14 779.94 207.30 779.84 206.46 C 778.67 205.22 777.52 203.86 776.19 202.80 C 772.55 200.47 768.33 200.59 764.63 202.76 C 760.86 204.46 760.38 210.87 764.41 212.66 C 769.68 214.63 775.35 215.20 780.66 217.15 C 784.20 219.23 787.33 221.54 788.32 225.77 C 789.49 228.95 788.39 231.58 787.89 234.73 C 786.48 237.39 784.84 239.73 782.17 241.25 C 774.70 245.25 765.73 244.67 758.46 240.52 C 754.25 238.22 752.16 232.53 751.81 227.99 C 754.47 227.95 757.12 227.92 759.78 227.93 C 760.64 232.05 762.05 234.39 766.20 235.71 C 769.98 236.42 775.88 236.89 778.76 233.77 C 781.43 231.14 780.85 226.24 777.23 224.81 C 771.66 222.67 763.98 222.20 758.38 218.63 C 756.37 217.42 755.37 215.47 754.03 213.62 C 753.52 210.04 753.50 206.92 754.02 203.34 C 755.94 200.06 758.07 197.20 761.69 195.68 C 768.82 192.85 777.66 193.13 783.74 198.21 Z"
     fill="#4c4f51"
     id="path12" />
  <path
     id="path13"
     d="M 41.895996 194.79346 C 41.905997 210.82337 41.999746 226.98009 41.989746 243 C 49.669746 242.94 57.423008 243.07797 65.083008 242.91797 C 69.223008 242.16797 73.933466 239.91956 75.969727 235.94971 C 77.508555 232.94964 77.799108 229.42019 76.999512 226.27002 C 75.766729 221.41323 73.589688 220.08957 68.929688 218.05957 C 75.759688 215.96957 76.99931 208.93446 74.989746 203.21924 C 73.35964 198.5832 69.041076 194.79716 63.908203 194.79639 L 41.895996 194.79346 z M 50.009766 202.00928 L 62.900391 202.18945 C 64.551714 202.21255 66.359406 203.78533 66.990234 205.29932 C 67.833253 207.32256 68.022674 209.92015 67.040039 211.87939 C 66.201897 213.55053 63.767532 214.82899 61.850098 214.8501 L 50.040527 214.98047 C 49.990527 210.66047 49.999766 206.32928 50.009766 202.00928 z M 56.840332 221.85498 C 60.484643 221.96659 64.656645 222.50422 66.789551 224.22949 C 69.953843 226.78903 70.265669 231.17453 67.790039 233.75977 C 63.469587 238.27151 56.573047 236.24334 50.373047 236.67334 C 50.383047 232.02334 50.05957 226.68955 50.05957 222.03955 C 50.07942 222.05785 53.196021 221.74337 56.840332 221.85498 z "
     style="fill:#4c4f51;fill-opacity:1" />
  <path
     d="M 97.97 194.91 C 100.65 194.95 103.33 194.97 106.01 194.97 C 105.99 210.98 106.00 226.99 106.00 243.01 C 103.31 243.01 100.61 243.01 97.91 243.00 C 98.00 226.97 97.92 210.94 97.97 194.91 Z"
     fill="#4c4f51"
     id="path14" />
  <path
     d="m 197.98,194.93 8.34,0.03 -0.007,48.06227 L 197.98,243.01 Z"
     fill="#4c4f51"
     id="path15"
     sodipodi:nodetypes="ccccc" />
  <path
     d="m 231.91,194.96 8.84,0.03 21.67938,35.6771 L 262.14,195.04 271,194.97 V 243 l -8.84,0.01 -22.07,-34.32 -0.06,34.32 -8.06,-0.01 z"
     fill="#4c4f51"
     id="path16"
     sodipodi:nodetypes="ccccccccccc" />
  <path
     d="m 296.99,194.96 33.03,-0.02 -0.02,7.08 -24.96,0.01 0.02,13.92 20.95,0.04 v 7.03 L 305.06,223 305.05,243.01 297,243 Z"
     fill="#4c4f51"
     id="path17"
     sodipodi:nodetypes="ccccccccccc" />
  <path
     id="path18"
     d="M 416.98975 194.97949 C 416.98975 210.98949 417.00975 227 416.98975 243 C 419.65975 243 422.32977 243.01025 425.00977 243.01025 C 425.05977 237.01025 425.05053 231.01025 425.04053 225.01025 C 427.25053 225.02025 429.45016 225.02 431.66016 225 C 436.28016 230.63 440.16006 236.90955 444.06006 243.03955 C 447.47006 242.99955 450.88053 242.99051 454.29053 243.02051 C 449.85053 236.47051 445.49977 229.84 440.75977 223.5 C 444.35977 221.94 447.71063 220.23996 449.39063 216.45996 C 451.45063 212.20996 450.85959 207.81043 449.57959 203.44043 C 447.97959 198.17043 442.03932 195.68025 437.04932 195.01025 C 430.36932 194.89025 423.66975 194.99949 416.98975 194.97949 z M 424.99951 202.00928 C 429.66951 202.02928 434.14943 201.64988 438.66943 203.12988 C 440.08943 204.55988 441.97998 205.72947 441.97998 207.95947 C 442.05998 210.69947 442.5602 213.2707 440.2002 215.2207 C 436.0302 219.3107 430.36027 217.64021 425.03027 217.97021 C 424.99027 212.65021 425.00951 207.32928 424.99951 202.00928 z "
     style="fill:#4c4f51;fill-opacity:1" />
  <path
     d="m 475.71,195 h 10.84 l 11.58,21.21 11.96,-21.16 10.61,-0.04 0.29,47.99 -8.03,0.01 -0.1,-37.32 -7.02,12.21 -5.14,8.98 -4.21,0.29 -2.48,-3.15 -10.63,-18.05 0.31,37.06 -7.99,-0.03 z"
     fill="#4c4f51"
     id="path19"
     sodipodi:nodetypes="cccccccccccccccc" />
  <path
     id="path20"
     d="M 568.74023 194.97949 L 559.05029 195.0293 L 541.02979 243.02051 L 549.81006 243 L 554.45068 230.05957 L 573.66943 230.00977 L 578.14014 243 L 587.26025 243 L 568.74023 194.97949 z M 563.56934 203.69971 L 567.7207 214.34033 L 570.33984 222.53027 L 556.79004 222.48047 L 563.56934 203.69971 z "
     style="fill:#4c4f51;fill-opacity:1" />
  <path
     d="m 597.35,194.96 40.12,0.05 0.002,7.19425 -15.32193,0.006 -0.1,40.8 -8.12,0.01 -0.02,-40.93 -16.59342,0.0423 z"
     fill="#4c4f51"
     id="path21"
     sodipodi:nodetypes="ccccccccc" />
  <path
     d="M 658.99 194.95 C 661.67 194.97 664.34 194.99 667.01 194.99 C 667.00 210.99 666.99 227.00 667.01 243.00 C 664.34 243.01 661.67 243.01 659.00 243.01 C 658.95 226.99 658.99 210.97 658.99 194.95 Z"
     fill="#4c4f51"
     id="path22" />
</svg>
