<?xml version="1.0" encoding="UTF-8" standalone="no"?>
<svg
   version="1.1"
   viewBox="0 0 828 170"
   width="828pt"
   height="170pt"
   id="svg28"
   sodipodi:docname="logo_helena_text.svg"
   inkscape:version="1.4.2 (f4327f4, 2025-05-13)"
   xmlns:inkscape="http://www.inkscape.org/namespaces/inkscape"
   xmlns:sodipodi="http://sodipodi.sourceforge.net/DTD/sodipodi-0.dtd"
   xmlns="http://www.w3.org/2000/svg"
   xmlns:svg="http://www.w3.org/2000/svg">
  <defs
     id="defs28" />
  <sodipodi:namedview
     id="namedview28"
     pagecolor="#ffffff"
     bordercolor="#000000"
     borderopacity="0.25"
     inkscape:showpageshadow="2"
     inkscape:pageopacity="0.0"
     inkscape:pagecheckerboard="0"
     inkscape:deskcolor="#d1d1d1"
     inkscape:document-units="pt"
     inkscape:zoom="1.0525363"
     inkscape:cx="1046.9948"
     inkscape:cy="190.01721"
     inkscape:window-width="3200"
     inkscape:window-height="1712"
     inkscape:window-x="4117"
     inkscape:window-y="-8"
     inkscape:window-maximized="1"
     inkscape:current-layer="g1" />
  <g
     id="g1">
    <path
       d="m 41.99,23.75 c 7.68,0.22 15.37,0.01 23.05,0.12 -0.34,16.38 0.1,32.78 -0.08,49.17 18.34,-0.12 36.67,0.03 55.01,-0.07 0.02,-16.36 0.11,-32.72 -0.06,-49.08 7.7,-0.06 15.4,0.05 23.09,-0.06 0,40.06 0,80.12 0,120.18 -7.69,-0.01 -15.38,-0.01 -23.07,0 0.13,-17.26 0.06,-34.53 0.04,-51.79 -18.34,0.05 -36.73,0.27 -55.08,-0.13 0.28,17.3 -0.07,34.61 0.12,51.91 -7.67,0.02 -15.34,-0.01 -23.02,0 C 42,103.92 42,63.84 41.99,23.75 Z"
       fill="#4c4f51"
       id="path2" />
    <path
       d="m 187,23.95 c 27.15,-0.19 54.54268,-0.104535 81.70268,-0.104535 L 268.66762,42.043401 210.02,42.03 210.01,73.98 h 52 L 262,92.04 h -52 c 0.04,10.96 0.03,21.92 0.01,32.88 l 58.64175,0.27082 L 268.69,144.01 C 241.45,144 214.22,144 186.99,144.01 187.01,103.99 187,63.97 187,23.95 Z"
       fill="#4c4f51"
       id="path3"
       sodipodi:nodetypes="ccccccccccccc" />
    <path
       d="m 308.99,23.63 22.96,0.24 0.03,100.8 54.38,0.02 -0.01,19.31 -77.35,0.03 z"
       fill="#4c4f51"
       id="path4"
       sodipodi:nodetypes="ccccccc" />
    <path
       d="M 421.62732,23.62 502.12149,23.63105 501.91,42 444.11,42.02 444.03,74 495.01,73.97 C 495,80 495,86.02 495.01,92.04 l -50.89,-0.02 0.04,32.83 57.85,-0.06 C 502,131.2 502,137.6 502.02,144 c -26.8,0.01 -53.59,-0.02 -80.38,0.03 z"
       fill="#4c4f51"
       id="path5"
       sodipodi:nodetypes="ccccccccccccc" />
    <path
       d="m 542,23.77 24.9,0.08 55.99,86.42 -0.02,-86.57 22.2,0.17 -0.05,120.13 -24.18,0.05 -56.71,-86.47 0.31,86.43 h -22.45 z"
       fill="#4c4f51"
       id="path6"
       sodipodi:nodetypes="ccccccccccc" />
    <path
       id="path7"
       d="M 724.18066,23.970703 677.9707,144.06006 700.81055,144 l 10.77832,-31.11035 47.2207,0.10986 11.54004,30.99024 23.67041,0.0205 -47.21045,-120.030758 z m 11.25879,25.678711 c 1.15,3.69 2.51006,7.300664 3.81006,10.930664 2,5.34 4.21,10.589277 6,16.009277 2.27,6.13 4.68094,12.211055 6.96094,18.331055 -11.22,-0.18 -22.4509,-0.100195 -33.6709,0.0498 0.82,-3.7 2.28025,-7.139863 3.76025,-10.609863 3.48,-8.99 6.72049,-18.060118 10.00049,-27.120118 0.96,-2.58 1.34916,-5.54082 3.13916,-7.59082 z"
       style="fill:#4c4f51;fill-opacity:1" />
  </g>
</svg>
