<?xml version="1.0" encoding="UTF-8" standalone="no"?>
<!-- Created with Inkscape (http://www.inkscape.org/) -->

<svg
   version="1.1"
   id="svg1"
   width="1136.0006"
   height="295.90582"
   viewBox="0 0 1136.0006 295.90582"
   sodipodi:docname="logo_helena.svg"
   inkscape:version="1.4.2 (f4327f4, 2025-05-13)"
   xmlns:inkscape="http://www.inkscape.org/namespaces/inkscape"
   xmlns:sodipodi="http://sodipodi.sourceforge.net/DTD/sodipodi-0.dtd"
   xmlns="http://www.w3.org/2000/svg"
   xmlns:svg="http://www.w3.org/2000/svg">
  <defs
     id="defs1" />
  <sodipodi:namedview
     id="namedview1"
     pagecolor="#ffffff"
     bordercolor="#000000"
     borderopacity="0.25"
     inkscape:showpageshadow="2"
     inkscape:pageopacity="0.0"
     inkscape:pagecheckerboard="0"
     inkscape:deskcolor="#d1d1d1"
     inkscape:zoom="0.27276092"
     inkscape:cx="399.61737"
     inkscape:cy="608.59159"
     inkscape:window-width="1650"
     inkscape:window-height="1012"
     inkscape:window-x="2392"
     inkscape:window-y="-8"
     inkscape:window-maximized="1"
     inkscape:current-layer="g1">
    <inkscape:page
       x="0"
       y="0"
       width="1136.0006"
       height="295.90582"
       id="page2"
       margin="0"
       bleed="0" />
  </sodipodi:namedview>
  <g
     inkscape:groupmode="layer"
     inkscape:label="Image"
     id="g1"
     transform="translate(-212.15604,-356.44775)">
    <path
       style="fill:#4c4f51;fill-opacity:1"
       d="m 519.15604,651.31759 c -8.2504,-2.34446 -13.95608,-10.04073 -13.95608,-18.82505 0,-4.94946 2.60033,-11.54695 5.60145,-14.21186 6.003,-5.33051 18.61414,-6.73704 26.1114,-2.91223 5.79101,2.95436 6.97092,5.41727 3.64062,7.59937 -2.26546,1.48438 -2.69927,1.5055 -3.73048,0.1816 -1.50936,-1.93775 -7.84938,-3.61471 -11.78362,-3.1168 -4.16419,0.52701 -9.0976,3.53821 -10.67331,6.51466 -0.75357,1.42347 -1.12551,4.46894 -0.8901,7.28816 0.75236,9.01019 9.42479,13.87665 19.06154,10.69623 3.03818,-1.00268 3.61858,-1.65376 3.61858,-4.05918 0,-2.65563 -0.31052,-2.88742 -4.25,-3.17245 -3.80293,-0.27515 -4.28329,-0.59678 -4.56642,-3.0575 l -0.31642,-2.75 h 8.55366 8.55367 l -0.65067,7.75 c -0.73397,8.74215 -1.2512,9.43554 -8.75532,11.73733 -5.54302,1.70024 -10.40267,1.80566 -15.5685,0.33772 z m 155.5,-0.16032 c -5.7292,-1.88922 -8.20402,-3.65011 -11.20876,-7.97533 -3.61177,-5.19902 -3.82473,-14.3178 -0.47189,-20.20658 6.50388,-11.42312 24.16783,-13.64546 33.03173,-4.15579 l 2.35108,2.51707 -3.10447,1.60538 c -2.91762,1.50876 -3.26978,1.48661 -5.85108,-0.3681 -11.69034,-8.3997 -26.67852,4.49783 -19.29638,16.6048 2.36073,3.87168 4.60343,5.15384 10.40611,5.94918 3.4475,0.47254 5.43296,0.11075 8.90301,-1.62227 3.69172,-1.84374 4.84703,-2.02653 6.66366,-1.05429 8.26907,4.42547 -10.8463,12.19361 -21.42301,8.70593 z M 843.0269,650.9811 c -15.91574,-5.08365 -17.63022,-27.9589 -2.66761,-35.59225 6.35142,-3.24025 16.1287,-3.0639 22.03504,0.39745 6.67746,3.91325 9.26171,8.62043 9.26171,16.8701 0,5.79382 -0.39168,7.21836 -3,10.91094 -5.3931,7.63498 -15.64867,10.60162 -25.62914,7.41376 z m 17.33117,-9.22905 c 5.5687,-5.5687 4.66197,-15.68161 -1.78475,-19.90567 -3.15716,-2.06865 -9.8514,-2.28242 -14.21444,-0.45393 -5.90251,2.47367 -8.29579,11.15209 -4.89111,17.73601 3.60069,6.96298 15.10597,8.40792 20.8903,2.62359 z m 116.41786,9.50703 c -2.19126,-0.57985 -5.53625,-2.6829 -7.68507,-4.83172 -8.23422,-8.23422 -7.64626,-20.71292 1.34802,-28.61001 6.75001,-5.92658 19.45012,-6.48854 27.20992,-1.20399 4.137,2.81739 4.3645,4.08245 1.05258,5.85492 -2.12161,1.13545 -2.83395,1.06118 -5.25,-0.54733 -3.2574,-2.16864 -12.48043,-2.47009 -16.11188,-0.5266 -5.24673,2.80797 -7.73603,11.47163 -4.90415,17.06817 2.13573,4.22076 7.38901,7.03002 13.14607,7.03002 6.04533,0 9.57462,-2.04825 9.57462,-5.5567 0,-2.26529 -0.36428,-2.4433 -5,-2.4433 -4.88889,0 -5,-0.0667 -5,-3 v -3 h 8.5 8.49996 v 7.43191 c 0,7.02934 -0.1543,7.54182 -2.84991,9.46124 -5.24795,3.73688 -14.70782,4.94334 -22.53016,2.87339 z m 156.88007,0.29839 c -8.8859,-2.16325 -14.2657,-8.27083 -15.1561,-17.20638 -0.4562,-4.57884 -0.1157,-6.15239 2.3402,-10.81418 3.8007,-7.21444 9.8648,-10.5779 18.8832,-10.47358 11.6137,0.13433 19.4754,6.87156 20.2325,17.33859 0.5545,7.66558 -1.0243,12.15725 -5.7848,16.45811 -5.5675,5.02988 -12.5665,6.63249 -20.515,4.69744 z m 13.7558,-8.59279 c 7.6568,-5.20294 6.8456,-16.39085 -1.5601,-21.51614 -8.4005,-5.12211 -19.6882,1.20967 -19.6882,11.044 0,10.47461 12.3137,16.54337 21.2483,10.47214 z m 126.4292,8.56345 c -8.6546,-2.759 -14.3263,-11.5332 -13.3802,-20.69943 0.8784,-8.5109 5.6709,-14.1568 14.4253,-16.9939 4.4691,-1.44833 5.9961,-1.51813 10.4949,-0.47968 5.6537,1.30502 11.757,4.86511 11.7682,6.86437 0,0.67482 -1.1297,1.97163 -2.5188,2.8818 -2.3531,1.54177 -2.6525,1.54007 -4.3817,-0.0249 -4.9388,-4.46948 -14.495,-3.9779 -19.1578,0.98548 -3.2653,3.47577 -3.5171,13.007 -0.4349,16.4637 4.7628,5.34151 13.0996,6.40651 18.9693,2.42326 3.5431,-2.40443 3.8826,-2.45573 6.2007,-0.93687 3.5207,2.30689 2.5491,4.62427 -3.1155,7.43091 -5.3434,2.64746 -14.0781,3.61272 -18.8695,2.08526 z m 46.7456,0.0253 c -3.9237,-0.93881 -9.4401,-4.18246 -9.3988,-5.52649 0.017,-0.56891 0.6755,-1.88463 1.4622,-2.9238 1.3978,-1.84641 1.5436,-1.84072 6.4036,0.25 6.2638,2.69461 12.1098,2.77211 15.2416,0.20206 3.2852,-2.69598 1.5533,-5.18926 -4.7461,-6.83255 -11.3688,-2.96569 -12.7493,-3.49541 -15.0153,-5.7614 -3.0489,-3.04884 -3.2297,-9.11601 -0.3797,-12.73921 4.3762,-5.56342 15.8458,-6.77752 24.2519,-2.56713 4.2443,2.12588 4.4578,2.74254 2,5.77569 -1.701,2.09909 -1.8459,2.11178 -5.1702,0.45265 -4.7444,-2.3679 -11.3338,-2.37491 -13.9422,-0.0148 -3.2395,2.93113 -1.2549,5.26539 5.6093,6.59763 10.219,1.98333 13.9025,3.76789 15.731,7.62124 4.8947,10.31473 -7.4333,18.96278 -22.0473,15.46614 z M 218.15604,632.49254 v -19 h 4 4 v 19 19 h -4 -4 z m 27.73334,18.40001 c -0.32999,-0.33 -0.63898,-8.88 -0.68664,-19 l -0.0866,-18.40001 h 3.94854 c 4.57192,0 4.05768,-0.46017 14.97943,13.40442 4.61342,5.85649 8.75634,10.87579 9.20648,11.15399 0.45015,0.27821 0.7931,-5.02113 0.76211,-11.77629 l -0.0563,-12.28212 3.59986,-0.31037 3.59986,-0.31036 v 19.06036 19.06037 h -3.32988 c -3.07104,0 -4.13985,-1.01483 -13.75,-13.05549 l -10.42012,-13.0555 -0.27903,13.0555 -0.27902,13.05549 h -3.30431 c -1.81737,0 -3.5743,-0.27 -3.9043,-0.59999 z m 65.26666,-14.83964 v -15.56037 h -7 -7 v -3.52307 -3.52308 l 17.75,0.27308 17.75,0.27307 0.31336,3.25 0.31336,3.25 h -7.62768 -7.62768 l 0.21676,15.25 0.21676,15.25 -3.65244,0.31037 -3.65244,0.31036 z m 35,-3.56037 v -19 h 15 15 v 3.5 3.5 h -11 -11 v 4 4 h 9 9 v 3 c 0,3.23761 -0.2652,3.30255 -14.12567,3.45906 -1.99412,0.0225 -3.68162,0.37844 -3.75,0.79094 -0.0684,0.4125 -0.12433,2.55 -0.12433,4.75 v 4 h 11.3865 11.3865 l 0.44114,3.00569 c 0.24263,1.65313 0.21871,3.22813 -0.0532,3.5 -0.27183,0.27187 -7.39427,0.49431 -15.82761,0.49431 h -15.33333 z m 47,0 v -19 h 4 4 v 15.5 15.5 h 11 11 v 3.5 3.5 h -15 -15 z m 43.40725,17.61891 c -0.29148,-0.75961 -0.38986,-9.19711 -0.21861,-18.75 l 0.31136,-17.36891 3.75,-0.31037 3.75,-0.31036 v 15.52761 15.52762 l 11.25,0.28275 11.25,0.28275 0.31336,3.25 0.31336,3.25 h -15.09475 c -11.91746,0 -15.20629,-0.29071 -15.62472,-1.38109 z m 43.59275,-17.55854 v -19.06037 h 3.41468 3.41468 l 0.65461,7.25 c 0.36003,3.9875 0.51092,12.425 0.33532,18.75 l -0.31929,11.5 -3.75,0.31037 -3.75,0.31036 z m 81,-0.0604 v -19 h 15.5 15.5 v 3.5 3.5 h -12 -12 v 4 4 h 9.5 9.5 v 3.26486 3.26486 l -9.27008,-0.2104 -9.27008,-0.21041 -0.13727,4.94555 -0.13727,4.94554 h 11.90735 11.90735 v 3.5 3.5 h -15.5 -15.5 z m 47.22793,0.25 0.27207,-18.75 4.13614,-0.30193 4.13613,-0.30194 9.78611,12.55194 c 5.38236,6.90356 10.0461,12.55256 10.36386,12.55332 0.31777,7.7e-4 0.42856,-5.62423 0.2462,-12.5 l -0.33155,-12.50139 h 4.08155 4.08156 v 19 19 h -3.30383 c -3.8338,0 -5.38401,-1.47627 -17.28512,-16.46054 l -7.91105,-9.96053 -0.27903,13.21053 -0.27902,13.21054 h -3.99304 -3.99304 z m 104.77207,-0.22461 v -19.02539 h 15.5 15.5 v 3.5 3.5 h -12.10699 c -10.62915,0 -12.0329,0.19308 -11.5,1.58179 0.33385,0.86998 0.60699,2.66998 0.60699,4 0,2.37849 0.14784,2.41821 9,2.41821 h 9 v 3.36326 3.36326 l -9.30077,-0.17057 -9.30077,-0.17057 0.0508,4.55731 0.0508,4.55731 11.95236,0.5 11.95236,0.5 -0.001,3 -10e-4,3 -15.701,0.27539 -15.70178,0.2754 z m 75,0.035 v -19.06039 h 14.33333 c 7.88334,0 14.55578,0.22244 14.82765,0.49431 0.27187,0.27187 0.29579,1.84687 0.0532,3.5 l -0.44118,3.00569 h -10.8865 -10.8865 v 4.5 4.5 h 8.89301 c 9.35222,0 10.10699,0.3795 10.10699,5.08179 0,1.75728 -0.80264,1.91821 -9.56709,1.91821 h -9.5671 l 0.24058,7.25 0.24057,7.25 -3.67348,0.31037 -3.67348,0.31036 z m 101,0 v -19.06039 h 9.05718 c 16.72034,0 21.94282,2.86988 21.94282,12.05813 0,3.69254 -0.5925,5.49256 -2.58889,7.86514 -1.4239,1.6922 -3.2239,3.07673 -4,3.07673 -2.22555,0 -1.69585,1.09653 3.61428,7.48195 2.73604,3.29007 4.97461,6.32757 4.97461,6.75 0,0.42243 -1.93821,0.76805 -4.30713,0.76805 -4.14492,0 -4.48688,-0.2448 -9.07977,-6.5 -4.23785,-5.77167 -5.15052,-6.5 -8.14515,-6.5 h -3.37252 l -0.29771,6.25 -0.29772,6.25 -3.75,0.31037 -3.75,0.31036 z m 21.54545,-2.51492 c 2.97758,-2.97759 3.09376,-4.90626 0.45455,-7.54547 -1.55556,-1.55556 -3.33333,-2 -8,-2 h -6 v 6 6 h 5.54545 c 4.55444,0 5.98411,-0.43865 8,-2.45455 z m 108.37121,21.04017 c -0.2292,-0.22791 -0.2849,-8.77791 -0.124,-19 l 0.2927,-18.58564 h 14.4573 14.4573 v 3.5 3.5 h -11 -11 v 4 4 h 9 9 v 3 c 0,3.31392 0.5411,3.16308 -11.75,3.27535 l -6.25,0.0571 v 4.83377 4.83378 h 11.3835 11.3834 l 0.5246,2.7443 c 0.2885,1.50937 0.3144,3.08437 0.058,3.5 -0.4758,0.76987 -29.6722,1.09732 -30.4324,0.34132 z m 46.0833,-18.52527 v -19.06037 h 3.8669 c 3.7512,0 4.1627,0.37164 13.748,12.4187 5.4346,6.83028 10.046,12.25369 10.2477,12.05202 0.2017,-0.20167 0.2919,-5.79009 0.2004,-12.4187 l -0.1662,-12.05202 h 4.0516 4.0516 v 19.06037 19.06036 l -3.7113,-0.31036 c -3.4042,-0.28468 -4.5049,-1.28278 -13.2987,-12.05907 -5.273,-6.46178 -10.0154,-12.17471 -10.5387,-12.69539 -0.6015,-0.59859 -0.9513,3.72156 -0.9513,11.74869 v 12.6954 l -3.75,0.31037 -3.75,0.31036 z m 112,-0.0604 v -19 h 3.902 c 3.8119,0 4.0372,0.20741 9.75,8.97568 3.2164,4.93663 6.073,8.95996 6.348,8.94074 0.275,-0.0192 3.0771,-4.05829 6.2268,-8.97569 5.6519,-8.82382 5.7794,-8.94073 9.75,-8.94073 h 4.0232 v 19.06037 19.06036 l -3.6196,-0.31036 -3.6196,-0.31037 0.17,-12.75 c 0.093,-7.0125 -0.021,-12.75 -0.2543,-12.75 -0.2334,0 -2.8022,3.62197 -5.7086,8.04883 -7.2421,11.03115 -7.2447,11.03022 -18.6591,-6.69866 -0.9561,-1.48509 -1.2028,0.76434 -1.25,11.39983 l -0.059,13.25 h -3.5 -3.5 z m 59,0 v -19 h 4 4 v 19 19 h -4 -4 z m -1009.24996,-85.77673 -14.75,-0.27674 v -94.97326 -94.97327 h 15 15 v 39 39 h 40 40 v -39 -39 h 15.5 15.5 v 95 95 h -15.5 -15.5 v -43 -43 h -39.98949 -39.98949 l -0.26051,43.25 -0.26051,43.25 z m 220.5,0.01 -25.25,-0.26717 V 451.468 356.47743 l 60.75,0.25774 60.75,0.25775 0.27903,13.25 0.27902,13.25 h -45.02902 -45.02903 v 25.5 25.5 h 38.5 38.5 v 13 13 h -38.5 -38.5 v 28.5 28.5 h 45.5 45.5 v 14.47581 14.47581 l -36.25,0.27419 c -19.9375,0.1508 -47.6125,0.15396 -61.5,0.007 z m 173,-0.0156 -11.25,-0.28317 v -94.96725 -94.96725 h 15.5 15.5 v 80.5 80.5 h 42 42 v 14.5 14.5 l -41.25,0.047 c -22.6875,0.0259 -43.5,0.13836 -46.25,0.25 -2.75,0.11163 -10.0625,0.0757 -16.25,-0.0798 z m 170,-0.002 -10.25,-0.28564 V 451.4575 356.49248 h 61.33333 c 33.73334,0 61.52084,0.18594 61.75,0.4132 0.22917,0.22725 0.27915,6.30225 0.11108,13.5 l -0.3056,13.0868 h -44.9444 -44.94441 v 25.5 25.5 h 39.52988 39.52987 l -0.27987,12.75 -0.27988,12.75 -39.25,0.26161 -39.25,0.2616 v 28.4884 28.48839 h 45.5 45.5 v 14.5 14.5 l -3.75,0.0155 c -2.0625,0.009 -25.35,0.12102 -51.75,0.25 -26.4,0.12897 -52.6125,0.10626 -58.25,-0.0505 z m 174.1138,-0.71567 c -0.20879,-0.55 -0.26356,-43.3 -0.12171,-95 l 0.25791,-94 h 15.42929 15.42929 l 7.47918,10.5 c 16.4486,23.0919 66.1904,93.42858 76.3773,108 5.9598,8.525 11.162,15.61257 11.5604,15.75015 0.3985,0.13759 0.6058,-30.12491 0.4607,-67.25 l -0.2639,-67.50015 h 14.5139 14.5138 v 95 95 l -13.75,-0.007 -13.75,-0.007 -20,-28.53201 c -11,-15.69219 -23.8494,-34.02663 -28.5542,-40.74279 -4.7049,-6.71616 -15.6961,-22.3362 -24.425,-34.7112 -8.729,-12.375 -17.7045,-25.16044 -19.94578,-28.41209 l -4.07498,-5.91209 -0.5,69.41209 -0.5,69.41209 h -14.87829 c -8.99912,0 -15.0283,-0.39515 -15.25791,-1 z m 205.12656,0.48448 c -0.2071,-0.33506 3.0131,-9.58114 7.156,-20.54684 4.1429,-10.9657 12.1362,-32.31264 17.763,-47.43764 5.6267,-15.125 18.265,-48.77256 28.0851,-74.77236 l 17.8546,-47.27237 17.4675,0.27237 17.4674,0.27236 10.4518,27 c 48.2803,124.72208 62.264,161.15667 62.2648,162.23142 5e-4,0.67444 -31.9677,0.7045 -32.5276,0.0306 -0.289,-0.34776 -16.2361,-42.07343 -18.1586,-47.512 l -1.5024,-4.25002 h -38.772 -38.772 l -2.2285,6.25 c -3.0031,8.42277 -16.3746,45.19004 -16.5417,45.4843 -0.3156,0.55583 -29.6672,0.80055 -30.0074,0.25018 z m 116.5096,-77.80854 c 0,-0.45323 -2.8421,-8.21573 -6.3159,-17.25 -3.4737,-9.03427 -9.8775,-26.21344 -14.2306,-38.17594 -4.3531,-11.9625 -8.2085,-21.75 -8.5675,-21.75 -0.359,0 -0.8889,0.7875 -1.1776,1.75 -0.5012,1.67094 -25.7904,70.86073 -27.2301,74.5 -0.6497,1.64244 1.0967,1.75 28.4147,1.75 16.0089,0 29.107,-0.37083 29.107,-0.82406 z"
       id="path1" />
  </g>
</svg>
