<?xml version="1.0" encoding="UTF-8" standalone="no"?>
<svg
   version="1.1"
   viewBox="0 0 1024 535"
   width="1024.0pt"
   height="535.0pt"
   id="svg13"
   sodipodi:docname="logo_helix.svg"
   inkscape:version="1.4.2 (f4327f4, 2025-05-13)"
   xmlns:inkscape="http://www.inkscape.org/namespaces/inkscape"
   xmlns:sodipodi="http://sodipodi.sourceforge.net/DTD/sodipodi-0.dtd"
   xmlns="http://www.w3.org/2000/svg"
   xmlns:svg="http://www.w3.org/2000/svg">
  <defs
     id="defs13" />
  <sodipodi:namedview
     id="namedview13"
     pagecolor="#ffffff"
     bordercolor="#000000"
     borderopacity="0.25"
     inkscape:showpageshadow="2"
     inkscape:pageopacity="0.0"
     inkscape:pagecheckerboard="0"
     inkscape:deskcolor="#d1d1d1"
     inkscape:document-units="pt"
     inkscape:zoom="1.030922"
     inkscape:cx="634.38357"
     inkscape:cy="376.36212"
     inkscape:window-width="2400"
     inkscape:window-height="1262"
     inkscape:window-x="-8"
     inkscape:window-y="474"
     inkscape:window-maximized="1"
     inkscape:current-layer="svg13" />
  <path
     d="M 46.67 31.10 C 52.80 31.54 58.85 31.20 65.00 31.29 C 73.81 31.23 82.65 31.54 91.44 31.03 C 91.66 60.97 91.60 90.92 91.51 120.85 C 119.66 121.14 147.83 120.85 175.99 120.99 C 176.01 91.07 175.99 61.16 175.99 31.25 C 190.98 31.30 206.02 31.51 221.00 31.10 C 221.03 104.41 220.96 177.72 221.04 251.03 C 206.03 251.06 191.01 251.08 176.00 251.03 C 176.00 219.97 176.00 188.91 176.00 157.86 C 152.33 157.77 128.66 157.80 105.00 157.79 C 100.53 157.87 96.07 157.88 91.61 157.61 C 91.70 188.77 91.58 219.93 91.67 251.08 C 76.58 251.01 61.48 251.04 46.39 251.08 C 46.67 235.39 46.36 219.69 46.49 204.00 C 46.42 148.03 46.46 91.97 46.43 36.00 C 46.47 34.37 46.56 32.73 46.67 31.10 Z"
     fill="#3d4143"
     id="path2" />
  <path
     d="M 286.35 31.27 C 329.61 31.26 373.70 31.30 416.77 31.25 C 416.66 43.51 416.74 55.78 416.52 68.04 C 387.41 68.00 358.29 67.95 329.17 68.08 C 329.24 86.46 329.31 104.86 329.16 123.24 C 354.83 123.36 380.52 123.35 406.19 123.13 C 406.20 134.76 406.31 146.40 406.18 158.03 C 403.12 157.87 400.06 157.77 397.00 157.77 C 374.35 157.76 351.71 157.85 329.06 157.72 C 329.43 176.12 329.19 194.55 329.21 212.95 C 359.27 213.02 389.34 213.03 419.40 212.95 C 419.46 225.64 419.50 238.33 419.39 251.02 C 374.92 251.09 330.44 251.07 285.97 251.02 C 286.41 241.03 286.14 231.00 286.24 221.00 C 286.25 160.99 286.20 101.01 286.23 41.00 C 286.27 37.76 286.11 34.50 286.35 31.27 Z"
     fill="#3d4143"
     id="path3" />
  <path
     d="M 480.12 31.33 C 495.14 31.17 510.20 31.59 525.22 31.06 C 525.70 58.36 525.30 85.69 525.45 113.00 C 525.35 146.30 525.64 179.62 525.32 212.91 C 553.54 213.10 581.78 212.95 610.01 212.99 C 609.99 225.65 610.01 238.32 610.00 250.99 C 566.67 251.15 523.33 251.01 480.00 251.05 C 480.00 181.03 480.00 111.02 480.00 41.00 C 480.03 37.78 479.83 34.53 480.12 31.33 Z"
     fill="#3d4143"
     id="path4" />
  <path
     d="M 665.29 31.43 C 680.17 31.09 695.10 31.54 709.99 31.12 C 710.03 104.41 709.98 177.73 710.01 251.02 C 695.00 251.08 679.99 251.04 664.98 251.03 C 665.20 244.35 665.18 237.68 665.16 231.00 C 665.12 202.33 665.24 173.67 665.13 145.00 C 665.32 107.18 664.97 69.21 665.29 31.43 Z"
     fill="#3d4143"
     id="path5" />
  <path
     d="M 772.32 31.39 C 786.45 31.13 800.84 31.51 815.00 31.23 C 817.19 31.39 819.07 30.27 820.35 32.59 C 827.73 43.90 834.79 55.42 842.35 66.61 C 851.10 80.13 859.79 93.68 868.70 107.10 C 873.01 101.22 876.77 94.96 880.92 88.96 C 893.64 69.69 906.34 50.37 919.06 31.09 C 935.60 31.67 952.21 31.19 968.77 31.34 C 964.88 37.59 961.09 43.90 956.91 49.98 C 946.02 66.11 935.76 82.63 924.80 98.73 C 916.65 110.95 908.77 123.35 900.54 135.52 C 899.88 136.93 898.32 137.91 899.56 139.44 C 903.31 145.06 906.89 150.76 910.61 156.39 C 922.22 173.56 933.15 191.13 944.58 208.41 C 953.66 222.65 963.01 236.74 972.08 250.98 C 954.80 251.07 937.52 251.06 920.24 251.00 C 917.58 246.61 914.53 242.47 911.89 238.06 C 898.00 216.19 883.58 194.61 869.76 172.71 C 866.53 176.92 863.90 181.50 860.92 185.89 C 846.82 207.56 832.22 229.00 818.61 250.98 C 801.61 251.13 784.59 251.05 767.59 250.98 C 769.37 248.29 771.40 245.79 773.13 243.06 C 782.74 228.09 792.84 213.47 802.49 198.53 C 814.56 179.95 826.89 161.56 839.01 143.01 C 839.64 141.78 841.84 139.80 840.69 138.42 C 823.49 111.72 806.37 85.40 789.19 58.72 C 783.47 49.77 777.23 41.10 771.82 31.98 L 772.32 31.39 Z"
     fill="#3d4143"
     id="path6" />
  <path
     d="M 338.00 348.94 C 352.09 348.39 367.31 352.51 378.05 361.95 C 385.71 368.31 390.09 377.25 392.08 386.87 C 390.94 387.84 389.62 388.05 388.23 388.49 C 383.16 389.91 378.35 392.01 373.20 393.21 C 371.22 387.71 368.82 382.56 364.69 378.32 C 358.47 371.35 349.08 368.75 340.00 368.83 C 333.61 368.58 327.40 369.59 321.84 372.86 C 314.27 377.21 310.35 387.12 312.63 395.50 C 314.11 400.75 318.61 404.45 323.50 406.47 C 335.95 411.90 350.52 413.02 363.48 417.51 C 373.76 420.49 383.17 424.33 389.91 433.05 C 396.90 441.96 397.73 454.48 395.54 465.20 C 393.63 472.63 389.98 480.05 384.40 485.43 C 375.25 495.16 362.07 499.70 349.03 501.01 C 338.54 501.39 328.49 501.23 318.53 497.47 C 306.95 493.26 297.31 485.13 291.99 473.93 C 290.52 470.47 288.56 466.84 287.93 463.15 C 290.12 461.72 292.98 461.06 295.48 460.32 C 299.55 459.21 303.45 457.66 307.58 456.77 C 309.75 462.42 312.68 468.66 317.33 472.68 C 324.30 479.35 334.60 481.82 344.00 481.79 C 352.55 481.36 362.46 479.07 368.24 472.24 C 372.27 468.26 374.26 462.63 374.02 457.00 C 374.41 451.16 371.96 445.29 366.99 442.03 C 362.17 438.99 356.54 436.99 350.97 435.85 C 339.22 433.20 326.77 430.64 315.33 426.65 C 307.10 423.44 298.36 417.96 294.05 409.98 C 289.56 402.33 289.61 393.71 290.12 385.13 C 291.53 375.98 296.06 367.21 303.09 361.10 C 312.60 352.78 325.42 348.59 338.00 348.94 Z"
     fill="#3d4143"
     id="path7" />
  <path
     d="M 582.00 348.97 C 588.92 348.57 595.55 350.00 602.21 351.67 C 620.37 356.87 636.53 371.74 640.26 390.68 C 633.79 392.11 627.63 394.78 621.18 396.20 C 619.09 392.99 618.24 389.26 615.75 386.23 C 609.58 377.38 599.65 371.62 589.00 370.21 C 579.02 369.15 569.25 369.71 560.10 374.16 C 553.81 377.41 548.42 382.49 544.06 388.01 C 533.12 403.77 531.60 424.37 534.60 442.82 C 536.54 451.80 540.33 460.59 546.62 467.40 C 561.62 483.30 588.75 486.51 606.67 473.72 C 612.62 469.68 617.54 464.31 618.87 457.02 C 619.37 451.72 619.19 446.33 619.14 441.01 C 605.04 440.99 590.94 441.01 576.84 441.00 C 576.80 434.33 576.70 427.65 576.86 420.98 C 598.40 420.98 619.95 421.06 641.49 420.94 C 641.83 436.61 641.36 452.32 641.53 468.00 C 641.49 477.66 641.83 487.35 641.42 496.99 C 634.63 496.64 627.80 496.61 621.01 496.98 C 620.93 492.53 620.91 488.08 620.94 483.64 C 618.02 486.15 615.17 488.76 612.20 491.21 C 602.64 498.32 590.85 501.62 579.00 501.20 C 570.12 501.44 561.39 500.18 553.12 496.87 C 537.76 490.73 525.38 478.52 518.31 463.65 C 512.99 451.95 510.58 438.82 510.94 426.00 C 510.69 416.89 512.29 407.62 514.79 398.87 C 519.17 384.91 527.53 372.12 538.88 362.84 C 551.09 353.32 566.52 348.33 582.00 348.97 Z"
     fill="#3d4143"
     id="path8" />
  <path
     d="M 49.18 352.94 C 56.79 352.83 64.40 352.74 72.00 352.81 C 72.00 400.82 72.01 448.82 72.00 496.83 C 64.50 496.69 56.97 496.62 49.48 496.96 C 49.22 455.64 49.46 414.32 49.36 373.00 C 49.32 366.33 49.53 359.59 49.18 352.94 Z"
     fill="#3d4143"
     id="path9" />
  <path
     d="M 123.23 352.93 C 131.65 352.80 140.13 352.56 148.53 353.06 C 159.44 371.40 171.57 389.04 182.87 407.14 C 194.78 426.16 207.07 444.94 218.97 463.97 C 219.03 426.91 219.00 389.86 218.98 352.81 C 226.20 352.75 233.41 352.87 240.63 352.76 C 240.65 394.51 240.61 436.25 240.65 478.00 C 240.68 484.19 240.52 490.33 240.87 496.52 C 232.80 497.08 224.43 496.76 216.34 496.59 C 213.86 494.12 212.35 490.51 210.26 487.67 C 202.02 474.61 193.40 461.82 185.17 448.75 C 173.32 430.33 161.22 412.07 149.37 393.65 C 147.89 391.37 146.23 389.23 144.52 387.13 C 144.79 389.08 145.02 391.03 145.03 393.00 C 144.96 427.63 145.02 462.27 145.00 496.91 C 137.73 496.44 130.39 497.11 123.16 496.48 C 123.59 490.70 123.43 484.82 123.45 479.00 C 123.47 442.33 123.44 405.67 123.45 369.00 C 123.37 363.63 123.59 358.29 123.23 352.93 Z"
     fill="#3d4143"
     id="path10" />
  <path
     d="M 441.36 352.85 C 448.90 352.85 456.45 352.73 464.00 352.80 C 463.98 400.80 464.05 448.83 463.97 496.81 C 456.49 496.72 448.99 496.60 441.51 496.90 C 441.24 448.90 441.42 400.85 441.36 352.85 Z"
     fill="#3d4143"
     id="path11" />
  <path
     d="M 692.98 352.87 C 700.33 352.81 707.67 352.72 715.01 352.86 C 715.00 372.24 715.00 391.62 715.01 411.00 C 739.71 410.99 764.41 411.01 789.11 410.99 C 789.22 394.00 789.11 377.00 789.31 360.00 C 789.34 357.62 789.24 355.25 789.09 352.88 C 796.39 352.76 803.70 352.66 811.00 352.92 C 811.00 400.92 811.01 448.93 811.00 496.94 C 803.74 496.53 796.48 496.89 789.22 496.77 C 788.95 474.61 789.55 452.26 788.98 430.10 C 764.32 430.03 739.67 430.04 715.01 430.05 C 714.97 452.34 715.04 474.62 714.98 496.90 C 707.68 496.72 700.38 496.67 693.08 496.92 C 692.88 448.93 693.07 400.87 692.98 352.87 Z"
     fill="#3d4143"
     id="path12" />
  <path
     d="M 854.99 352.85 C 894.66 352.66 934.37 352.71 974.05 352.81 C 974.02 359.21 974.04 365.61 974.03 372.01 C 957.70 372.01 941.37 371.99 925.03 372.02 C 925.04 413.69 924.99 455.36 925.08 497.03 C 917.41 496.61 909.72 496.63 902.05 496.96 C 902.14 455.33 901.90 413.62 902.12 372.00 C 886.41 372.05 870.70 371.91 854.99 372.08 C 854.99 365.67 854.97 359.26 854.99 352.85 Z"
     fill="#3d4143"
     id="path13" />
</svg>
